<svg version="1.1" viewBox="0.0 0.0 960.0 720.0" fill="none" stroke="none" stroke-linecap="square" stroke-miterlimit="10" xmlns:xlink="http://www.w3.org/1999/xlink" xmlns="http://www.w3.org/2000/svg"><clipPath id="p.0"><path d="m0 0l960.0 0l0 720.0l-960.0 0l0 -720.0z" clip-rule="nonzero"/></clipPath><g clip-path="url(#p.0)"><path fill="#000000" fill-opacity="0.0" d="m0 0l960.0 0l0 720.0l-960.0 0z" fill-rule="evenodd"/><path fill="#cfe2f3" d="m258.84253 55.603676l140.44095 0l0 55.937004l-140.44095 0z" fill-rule="evenodd"/><path stroke="#000000" stroke-width="1.0" stroke-linejoin="round" stroke-linecap="butt" stroke-dasharray="4.0,3.0" d="m258.84253 55.603676l140.44095 0l0 55.937004l-140.44095 0z" fill-rule="evenodd"/><path fill="#000000" d="m289.46216 86.257805q-0.390625 2.0625 -1.875 3.265625q-1.46875 1.203125 -3.546875 1.15625q-1.21875 -0.03125 -2.140625 -0.609375q-0.921875 -0.578125 -1.4375 -1.65625q-0.515625 -1.09375 -0.5625 -2.421875q-0.03125 -0.75 0.0625 -1.453125l0.15625 -1.09375q0.421875 -2.984375 2.09375 -4.703125q1.671875 -1.734375 4.078125 -1.703125q1.859375 0.046875 2.953125 1.21875q1.09375 1.171875 1.15625 3.25l-1.703125 0q-0.109375 -2.796875 -2.1875 -3.015625l-0.296875 -0.015625q-1.71875 -0.046875 -2.875 1.28125q-1.15625 1.328125 -1.484375 3.625l-0.203125 1.375l-0.0625 0.796875q-0.046875 1.671875 0.59375 2.671875q0.65625 0.984375 1.9375 1.015625q1.390625 0.046875 2.296875 -0.65625q0.90625 -0.71875 1.375 -2.296875l1.671875 -0.03125zm4.5727844 -4.421875q1.296875 -1.40625 2.984375 -1.375q1.375 0.015625 2.046875 0.953125q0.671875 0.9375 0.5 2.625l-1.078125 6.453125l-1.640625 0l1.078125 -6.484375q0.0625 -0.453125 0.015625 -0.828125q-0.15625 -1.28125 -1.515625 -1.3125q-1.5 -0.03125 -2.59375 1.59375l-1.21875 7.03125l-1.65625 0l2.4375 -14.0l1.640625 0l-1.0 5.34375zm13.01001 8.65625q-0.0625 -0.265625 -0.0625 -0.515625l0.03125 -0.515625q-1.359375 1.25 -2.890625 1.21875q-1.296875 -0.03125 -2.109375 -0.828125q-0.8125 -0.8125 -0.75 -2.015625q0.09375 -1.578125 1.375 -2.453125q1.28125 -0.875 3.375 -0.875l1.71875 0.015625l0.109375 -0.796875q0.09375 -0.875 -0.34375 -1.390625q-0.4375 -0.515625 -1.296875 -0.53125q-0.84375 -0.015625 -1.5 0.421875q-0.65625 0.421875 -0.796875 1.140625l-1.65625 0q0.078125 -0.859375 0.671875 -1.53125q0.59375 -0.671875 1.515625 -1.03125q0.9375 -0.375 1.921875 -0.359375q1.546875 0.03125 2.390625 0.9375q0.859375 0.890625 0.734375 2.375l-0.8125 4.890625l-0.046875 0.703125q-0.015625 0.5 0.109375 0.984375l-0.015625 0.15625l-1.671875 0zm-2.59375 -1.28125q0.796875 0.03125 1.5 -0.359375q0.71875 -0.40625 1.21875 -1.109375l0.359375 -2.03125l-1.25 -0.015625q-1.5625 0 -2.390625 0.5q-0.828125 0.484375 -0.9375 1.390625q-0.078125 0.6875 0.328125 1.15625q0.40625 0.453125 1.171875 0.46875zm9.766602 -8.578125l-0.234375 1.234375q1.328125 -1.453125 3.03125 -1.40625q1.390625 0.03125 2.046875 0.96875q0.671875 0.921875 0.5 2.609375l-1.078125 6.453125l-1.640625 0l1.078125 -6.484375q0.0625 -0.453125 0.015625 -0.828125q-0.15625 -1.28125 -1.515625 -1.3125q-1.484375 -0.015625 -2.59375 1.59375l-1.21875 7.03125l-1.65625 0l1.71875 -9.859375l1.546875 0zm10.075104 0l-0.234375 1.234375q1.328125 -1.453125 3.03125 -1.40625q1.390625 0.03125 2.046875 0.96875q0.671875 0.921875 0.5 2.609375l-1.078125 6.453125l-1.640625 0l1.078125 -6.484375q0.0625 -0.453125 0.015625 -0.828125q-0.15625 -1.28125 -1.515625 -1.3125q-1.484375 -0.015625 -2.59375 1.59375l-1.21875 7.03125l-1.65625 0l1.71875 -9.859375l1.546875 0zm11.075104 10.046875q-1.84375 -0.046875 -2.890625 -1.359375q-1.03125 -1.328125 -0.859375 -3.390625l0.046875 -0.390625q0.15625 -1.453125 0.859375 -2.671875q0.71875 -1.21875 1.75 -1.828125q1.03125 -0.609375 2.21875 -0.578125q1.53125 0.03125 2.390625 1.015625q0.859375 0.96875 0.953125 2.625q0.015625 0.59375 -0.046875 1.1875l-0.09375 0.75l-6.4375 0q-0.171875 1.34375 0.4375 2.28125q0.609375 0.9375 1.8125 0.984375q1.453125 0.03125 2.6875 -1.3125l0.953125 0.796875q-0.625 0.890625 -1.609375 1.40625q-0.96875 0.5 -2.171875 0.484375zm1.046875 -8.84375q-1.015625 -0.03125 -1.78125 0.6875q-0.765625 0.71875 -1.203125 2.140625l4.78125 0l0.046875 -0.140625q0.140625 -1.140625 -0.375 -1.90625q-0.515625 -0.765625 -1.46875 -0.78125zm6.143036 8.65625l-1.640625 0l2.421875 -14.0l1.65625 0l-2.4375 14.0zm8.731873 0q-0.0625 -0.265625 -0.0625 -0.515625l0.03125 -0.515625q-1.359375 1.25 -2.890625 1.21875q-1.296875 -0.03125 -2.109375 -0.828125q-0.8125 -0.8125 -0.75 -2.015625q0.09375 -1.578125 1.375 -2.453125q1.28125 -0.875 3.375 -0.875l1.71875 0.015625l0.109375 -0.796875q0.09375 -0.875 -0.34375 -1.390625q-0.4375 -0.515625 -1.296875 -0.53125q-0.84375 -0.015625 -1.5 0.421875q-0.65625 0.421875 -0.796875 1.140625l-1.65625 0q0.078125 -0.859375 0.671875 -1.53125q0.59375 -0.671875 1.515625 -1.03125q0.9375 -0.375 1.921875 -0.359375q1.546875 0.03125 2.390625 0.9375q0.859375 0.890625 0.734375 2.375l-0.8125 4.890625l-0.046875 0.703125q-0.015625 0.5 0.109375 0.984375l-0.015625 0.15625l-1.671875 0zm-2.59375 -1.28125q0.796875 0.03125 1.5 -0.359375q0.71875 -0.40625 1.21875 -1.109375l0.359375 -2.03125l-1.25 -0.015625q-1.5625 0 -2.390625 0.5q-0.828125 0.484375 -0.9375 1.390625q-0.078125 0.6875 0.328125 1.15625q0.40625 0.453125 1.171875 0.46875zm15.454071 -3.59375q-0.1875 1.5 -0.84375 2.71875q-0.640625 1.203125 -1.5625 1.796875q-0.921875 0.578125 -2.03125 0.546875q-1.796875 -0.03125 -2.65625 -1.328125l-0.34375 1.140625l-1.515625 0l2.4375 -14.0l1.640625 0l-0.984375 5.234375q1.1875 -1.3125 2.875 -1.265625q1.421875 0.03125 2.203125 1.046875q0.796875 1.0 0.84375 2.78125q0.015625 0.578125 -0.046875 1.125l-0.015625 0.203125zm-1.578125 -0.96875q0.03125 -1.328125 -0.453125 -2.03125q-0.46875 -0.703125 -1.4375 -0.75q-1.53125 -0.03125 -2.609375 1.5625l-0.734375 4.28125q0.546875 1.5 2.046875 1.546875q0.96875 0.03125 1.6875 -0.578125q0.734375 -0.609375 1.109375 -1.703125q0.375 -1.109375 0.390625 -2.328125zm4.6544495 5.84375l-1.640625 0l2.421875 -14.0l1.65625 0l-2.4375 14.0zm6.9662476 0.1875q-1.84375 -0.046875 -2.890625 -1.359375q-1.03125 -1.328125 -0.859375 -3.390625l0.046875 -0.390625q0.15625 -1.453125 0.859375 -2.671875q0.71875 -1.21875 1.75 -1.828125q1.03125 -0.609375 2.21875 -0.578125q1.53125 0.03125 2.390625 1.015625q0.859375 0.96875 0.953125 2.625q0.015625 0.59375 -0.046875 1.1875l-0.09375 0.75l-6.4375 0q-0.171875 1.34375 0.4375 2.28125q0.609375 0.9375 1.8125 0.984375q1.453125 0.03125 2.6875 -1.3125l0.953125 0.796875q-0.625 0.890625 -1.609375 1.40625q-0.96875 0.5 -2.171875 0.484375zm1.046875 -8.84375q-1.015625 -0.03125 -1.78125 0.6875q-0.765625 0.71875 -1.203125 2.140625l4.78125 0l0.046875 -0.140625q0.140625 -1.140625 -0.375 -1.90625q-0.515625 -0.765625 -1.46875 -0.78125z" fill-rule="nonzero"/><path fill="#000000" fill-opacity="0.0" d="m199.28346 83.603676l59.559067 -0.03149414" fill-rule="evenodd"/><path stroke="#000000" stroke-width="1.0" stroke-linejoin="round" stroke-linecap="butt" d="m199.28346 83.603676l53.55905 -0.028327942" fill-rule="evenodd"/><path fill="#000000" stroke="#000000" stroke-width="1.0" stroke-linecap="butt" d="m252.8434 85.22708l4.537216 -1.654129l-4.538971 -1.6493301z" fill-rule="evenodd"/><path fill="#000000" fill-opacity="0.0" d="m199.47209 52.36483l64.81889 0l0 30.330711l-64.81889 0z" fill-rule="evenodd"/><path fill="#000000" d="m210.12834 75.44483l0 -6.71875l-1.234375 0l0 -1.03125l1.234375 0l0 -0.78125q0 -1.25 0.65625 -1.921875q0.671875 -0.6875 1.890625 -0.6875q0.453125 0 0.90625 0.125l-0.078125 1.0625q-0.328125 -0.0625 -0.703125 -0.0625q-0.65625 0 -1.0 0.375q-0.34375 0.375 -0.34375 1.078125l0 0.8125l1.640625 0l0 1.03125l-1.640625 0l0 6.71875l-1.328125 0zm8.181931 -6.5625q-0.3125 -0.046875 -0.65625 -0.046875q-1.296875 0 -1.765625 1.109375l0 5.5l-1.328125 0l0 -7.75l1.296875 0l0.015625 0.90625q0.65625 -1.046875 1.84375 -1.046875q0.390625 0 0.59375 0.109375l0 1.21875zm0.86561584 2.625q0 -1.140625 0.4375 -2.046875q0.453125 -0.921875 1.25 -1.40625q0.796875 -0.5 1.828125 -0.5q1.578125 0 2.546875 1.09375q0.984375 1.09375 0.984375 2.921875l0 0.09375q0 1.125 -0.4375 2.03125q-0.4375 0.890625 -1.25 1.390625q-0.796875 0.5 -1.84375 0.5q-1.5625 0 -2.546875 -1.09375q-0.96875 -1.09375 -0.96875 -2.890625l0 -0.09375zm1.328125 0.15625q0 1.28125 0.59375 2.0625q0.59375 0.78125 1.59375 0.78125q1.015625 0 1.609375 -0.78125q0.59375 -0.796875 0.59375 -2.21875q0 -1.28125 -0.609375 -2.0625q-0.59375 -0.796875 -1.59375 -0.796875q-0.984375 0 -1.59375 0.78125q-0.59375 0.78125 -0.59375 2.234375zm8.624268 -3.96875l0.03125 0.859375q0.859375 -1.0 2.296875 -1.0q1.625 0 2.21875 1.25q0.375 -0.5625 1.0 -0.90625q0.625 -0.34375 1.46875 -0.34375q2.546875 0 2.578125 2.703125l0 5.1875l-1.3125 0l0 -5.109375q0 -0.828125 -0.390625 -1.234375q-0.375 -0.421875 -1.265625 -0.421875q-0.734375 0 -1.234375 0.453125q-0.484375 0.4375 -0.5625 1.171875l0 5.140625l-1.328125 0l0 -5.078125q0 -1.6875 -1.65625 -1.6875q-1.296875 0 -1.78125 1.109375l0 5.65625l-1.3125 0l0 -7.75l1.25 0z" fill-rule="nonzero"/><path fill="#cfe2f3" d="m447.0078 55.603676l140.44092 0l0 55.937004l-140.44092 0z" fill-rule="evenodd"/><path stroke="#000000" stroke-width="1.0" stroke-linejoin="round" stroke-linecap="butt" stroke-dasharray="4.0,3.0" d="m447.0078 55.603676l140.44092 0l0 55.937004l-140.44092 0z" fill-rule="evenodd"/><path fill="#000000" d="m485.05994 78.664055l-4.125 0l-2.046875 11.828125l-1.703125 0l2.046875 -11.828125l-4.125 0l0.25 -1.4375l9.953125 0l-0.25 1.4375zm5.7139893 11.828125q-0.0625 -0.265625 -0.0625 -0.515625l0.03125 -0.515625q-1.359375 1.25 -2.890625 1.21875q-1.296875 -0.03125 -2.109375 -0.828125q-0.8125 -0.8125 -0.75 -2.015625q0.09375 -1.578125 1.375 -2.453125q1.28125 -0.875 3.375 -0.875l1.71875 0.015625l0.109375 -0.796875q0.09375 -0.875 -0.34375 -1.390625q-0.4375 -0.515625 -1.296875 -0.53125q-0.84375 -0.015625 -1.5 0.421875q-0.65625 0.421875 -0.796875 1.140625l-1.65625 0q0.078125 -0.859375 0.671875 -1.53125q0.59375 -0.671875 1.515625 -1.03125q0.9375 -0.375 1.921875 -0.359375q1.546875 0.03125 2.390625 0.9375q0.859375 0.890625 0.734375 2.375l-0.8125 4.890625l-0.046875 0.703125q-0.015625 0.5 0.109375 0.984375l-0.015625 0.15625l-1.671875 0zm-2.59375 -1.28125q0.796875 0.03125 1.5 -0.359375q0.71875 -0.40625 1.21875 -1.109375l0.359375 -2.03125l-1.25 -0.015625q-1.5625 0 -2.390625 0.5q-0.828125 0.484375 -0.9375 1.390625q-0.078125 0.6875 0.328125 1.15625q0.40625 0.453125 1.171875 0.46875zm12.625946 -7.078125l-0.765625 -0.078125q-1.59375 0 -2.5 1.4375l-1.203125 7.0l-1.65625 0l1.71875 -9.859375l1.59375 0l-0.25 1.140625q1.046875 -1.375 2.46875 -1.34375q0.296875 0 0.78125 0.140625l-0.1875 1.5625zm0.572052 3.40625q0.21875 -1.609375 0.859375 -2.796875q0.65625 -1.1875 1.59375 -1.75q0.9375 -0.578125 2.046875 -0.546875q1.71875 0.03125 2.59375 1.296875l0.328125 -1.109375l1.5 0l-1.640625 9.65625q-0.265625 1.875 -1.53125 3.0q-1.265625 1.140625 -3.125 1.09375q-1.0 -0.015625 -1.921875 -0.484375q-0.90625 -0.453125 -1.4375 -1.234375l0.9375 -1.015625q0.90625 1.328125 2.359375 1.359375q1.1875 0.03125 2.0 -0.65625q0.8125 -0.6875 1.078125 -1.96875l0.1875 -0.875q-1.203125 1.203125 -2.828125 1.171875q-0.921875 -0.03125 -1.59375 -0.5q-0.671875 -0.46875 -1.046875 -1.359375q-0.375 -0.890625 -0.421875 -1.984375q-0.015625 -0.53125 0.0625 -1.296875zm1.59375 0.9375q-0.03125 1.3125 0.4375 2.03125q0.484375 0.703125 1.453125 0.75q1.484375 0.03125 2.546875 -1.453125l0.765625 -4.53125q-0.546875 -1.34375 -1.96875 -1.40625q-1.34375 -0.03125 -2.203125 1.109375q-0.859375 1.125 -1.015625 3.046875l-0.015625 0.453125zm12.435669 4.203125q-1.84375 -0.046875 -2.890625 -1.359375q-1.0312195 -1.328125 -0.8593445 -3.390625l0.046875 -0.390625q0.15625 -1.453125 0.8593445 -2.671875q0.71875 -1.21875 1.75 -1.828125q1.03125 -0.609375 2.21875 -0.578125q1.53125 0.03125 2.390625 1.015625q0.859375 0.96875 0.953125 2.625q0.015625 0.59375 -0.046875 1.1875l-0.09375 0.75l-6.4375 0q-0.171875 1.34375 0.4375 2.28125q0.609375 0.9375 1.8125 0.984375q1.453125 0.03125 2.6875 -1.3125l0.953125 0.796875q-0.625 0.890625 -1.609375 1.40625q-0.96875 0.5 -2.171875 0.484375zm1.046875 -8.84375q-1.015625 -0.03125 -1.78125 0.6875q-0.765625 0.71875 -1.203125 2.140625l4.78125 0l0.046875 -0.140625q0.140625 -1.140625 -0.375 -1.90625q-0.515625 -0.765625 -1.46875 -0.78125zm8.721191 -3.59375l-0.421875 2.390625l1.796875 0l-0.234375 1.3125l-1.78125 0l-1.03125 6.125q-0.03125 0.234375 -0.015625 0.4375q0.078125 0.703125 0.78125 0.703125q0.296875 0 0.796875 -0.078125l-0.125 1.375q-0.59375 0.15625 -1.203125 0.15625q-0.984375 -0.015625 -1.484375 -0.71875q-0.484375 -0.703125 -0.375 -1.90625l1.0 -6.09375l-1.734375 0l0.234375 -1.3125l1.734375 0l0.421875 -2.390625l1.640625 0zm7.675049 12.25q-0.0625 -0.265625 -0.0625 -0.515625l0.03125 -0.515625q-1.359375 1.25 -2.890625 1.21875q-1.296875 -0.03125 -2.109375 -0.828125q-0.8125 -0.8125 -0.75 -2.015625q0.09375 -1.578125 1.375 -2.453125q1.28125 -0.875 3.375 -0.875l1.71875 0.015625l0.109375 -0.796875q0.09375 -0.875 -0.34375 -1.390625q-0.4375 -0.515625 -1.296875 -0.53125q-0.84375 -0.015625 -1.5 0.421875q-0.65625 0.421875 -0.796875 1.140625l-1.65625 0q0.078125 -0.859375 0.671875 -1.53125q0.59375 -0.671875 1.515625 -1.03125q0.9375 -0.375 1.921875 -0.359375q1.546875 0.03125 2.390625 0.9375q0.859375 0.890625 0.734375 2.375l-0.8125 4.890625l-0.046875 0.703125q-0.015625 0.5 0.109375 0.984375l-0.015625 0.15625l-1.671875 0zm-2.59375 -1.28125q0.796875 0.03125 1.5 -0.359375q0.71875 -0.40625 1.21875 -1.109375l0.359375 -2.03125l-1.25 -0.015625q-1.5625 0 -2.390625 0.5q-0.828125 0.484375 -0.9375 1.390625q-0.078125 0.6875 0.328125 1.15625q0.40625 0.453125 1.171875 0.46875zm15.454041 -3.59375q-0.1875 1.5 -0.84375 2.71875q-0.640625 1.203125 -1.5625 1.796875q-0.921875 0.578125 -2.03125 0.546875q-1.796875 -0.03125 -2.65625 -1.328125l-0.34375 1.140625l-1.515625 0l2.4375 -14.0l1.640625 0l-0.984375 5.234375q1.1875 -1.3125 2.875 -1.265625q1.421875 0.03125 2.203125 1.046875q0.796875 1.0 0.84375 2.78125q0.015625 0.578125 -0.046875 1.125l-0.015625 0.203125zm-1.578125 -0.96875q0.03125 -1.328125 -0.453125 -2.03125q-0.46875 -0.703125 -1.4375 -0.75q-1.53125 -0.03125 -2.609375 1.5625l-0.734375 4.28125q0.546875 1.5 2.046875 1.546875q0.96875 0.03125 1.6875 -0.578125q0.734375 -0.609375 1.109375 -1.703125q0.375 -1.109375 0.390625 -2.328125zm4.65448 5.84375l-1.640625 0l2.421875 -14.0l1.65625 0l-2.4375 14.0zm6.9662476 0.1875q-1.84375 -0.046875 -2.890625 -1.359375q-1.03125 -1.328125 -0.859375 -3.390625l0.046875 -0.390625q0.15625 -1.453125 0.859375 -2.671875q0.71875 -1.21875 1.75 -1.828125q1.03125 -0.609375 2.21875 -0.578125q1.53125 0.03125 2.390625 1.015625q0.859375 0.96875 0.953125 2.625q0.015625 0.59375 -0.046875 1.1875l-0.09375 0.75l-6.4375 0q-0.171875 1.34375 0.4375 2.28125q0.609375 0.9375 1.8125 0.984375q1.453125 0.03125 2.6875 -1.3125l0.953125 0.796875q-0.625 0.890625 -1.609375 1.40625q-0.96875 0.5 -2.171875 0.484375zm1.046875 -8.84375q-1.015625 -0.03125 -1.78125 0.6875q-0.765625 0.71875 -1.203125 2.140625l4.78125 0l0.046875 -0.140625q0.140625 -1.140625 -0.375 -1.90625q-0.515625 -0.765625 -1.46875 -0.78125z" fill-rule="nonzero"/><path fill="#000000" fill-opacity="0.0" d="m399.4725 52.36483l64.81891 0l0 30.330711l-64.81891 0z" fill-rule="evenodd"/><path fill="#000000" d="m412.58188 74.50733q0.703125 0 1.234375 -0.421875q0.53125 -0.4375 0.59375 -1.078125l1.25 0q-0.03125 0.65625 -0.453125 1.265625q-0.421875 0.59375 -1.140625 0.953125q-0.703125 0.359375 -1.484375 0.359375q-1.578125 0 -2.515625 -1.046875q-0.9375 -1.0625 -0.9375 -2.890625l0 -0.21875q0 -1.140625 0.40625 -2.015625q0.421875 -0.875 1.203125 -1.359375q0.78125 -0.5 1.828125 -0.5q1.3125 0 2.171875 0.78125q0.859375 0.78125 0.921875 2.03125l-1.25 0q-0.0625 -0.75 -0.578125 -1.234375q-0.5 -0.484375 -1.265625 -0.484375q-1.0 0 -1.5625 0.734375q-0.546875 0.71875 -0.546875 2.09375l0 0.25q0 1.328125 0.546875 2.0625q0.546875 0.71875 1.578125 0.71875zm9.343506 0.9375q-0.109375 -0.234375 -0.1875 -0.8125q-0.921875 0.953125 -2.203125 0.953125q-1.140625 0 -1.875 -0.640625q-0.734375 -0.65625 -0.734375 -1.640625q0 -1.21875 0.921875 -1.875q0.921875 -0.671875 2.578125 -0.671875l1.296875 0l0 -0.609375q0 -0.703125 -0.421875 -1.109375q-0.40625 -0.40625 -1.21875 -0.40625q-0.703125 0 -1.1875 0.359375q-0.484375 0.34375 -0.484375 0.859375l-1.328125 0q0 -0.578125 0.40625 -1.109375q0.421875 -0.546875 1.125 -0.859375q0.703125 -0.328125 1.546875 -0.328125q1.34375 0 2.09375 0.671875q0.765625 0.671875 0.796875 1.84375l0 3.5625q0 1.0625 0.265625 1.703125l0 0.109375l-1.390625 0zm-2.203125 -1.015625q0.625 0 1.1875 -0.3125q0.5625 -0.328125 0.8125 -0.84375l0 -1.578125l-1.046875 0q-2.421875 0 -2.421875 1.421875q0 0.625 0.40625 0.96875q0.421875 0.34375 1.0625 0.34375zm6.8315735 1.015625l-1.328125 0l0 -11.0l1.328125 0l0 11.0zm3.5567322 0l-1.328125 0l0 -11.0l1.328125 0l0 11.0z" fill-rule="nonzero"/><path fill="#000000" fill-opacity="0.0" d="m399.28348 83.57218c0.03149414 0 0.06298828 0.03149414 0.06298828 0.06298828" fill-rule="evenodd"/><path stroke="#000000" stroke-width="1.0" stroke-linejoin="round" stroke-linecap="butt" d="m399.28348 83.57218c0.03149414 0 0.06298828 0.03149414 0.06298828 0.06298828" fill-rule="evenodd"/><path fill="#cfe2f3" d="m654.1664 55.603676l140.44098 0l0 55.937004l-140.44098 0z" fill-rule="evenodd"/><path stroke="#000000" stroke-width="1.0" stroke-linejoin="round" stroke-linecap="butt" stroke-dasharray="4.0,3.0" d="m654.1664 55.603676l140.44098 0l0 55.937004l-140.44098 0z" fill-rule="evenodd"/><path fill="#000000" d="m697.8736 87.070305q0.203125 -1.453125 -1.5 -2.125l-1.578125 -0.578125l-0.53125 -0.21875q-2.65625 -1.21875 -2.484375 -3.40625q0.09375 -1.109375 0.75 -1.953125q0.671875 -0.84375 1.765625 -1.296875q1.09375 -0.46875 2.328125 -0.453125q1.203125 0.03125 2.140625 0.546875q0.953125 0.515625 1.4375 1.4375q0.5 0.90625 0.453125 2.046875l-1.734375 0q0.09375 -1.234375 -0.546875 -1.890625q-0.625 -0.671875 -1.8125 -0.6875q-1.25 -0.03125 -2.09375 0.578125q-0.828125 0.59375 -0.96875 1.640625q-0.171875 1.359375 1.671875 2.0625l1.359375 0.484375l0.6875 0.28125q2.5625 1.1875 2.375 3.515625q-0.109375 1.125 -0.765625 1.9375q-0.640625 0.8125 -1.765625 1.265625q-1.125 0.4375 -2.421875 0.421875q-1.25 -0.015625 -2.28125 -0.53125q-1.03125 -0.53125 -1.578125 -1.4375q-0.53125 -0.921875 -0.46875 -2.078125l1.703125 0.015625q-0.078125 1.1875 0.640625 1.890625q0.734375 0.6875 2.046875 0.703125q1.328125 0.015625 2.1875 -0.5625q0.859375 -0.59375 0.984375 -1.609375zm4.9093018 3.421875l-1.640625 0l1.71875 -9.859375l1.640625 0l-1.71875 9.859375zm1.359375 -13.453125q0.421875 -0.015625 0.703125 0.25q0.28125 0.265625 0.28125 0.703125q-0.015625 0.4375 -0.28125 0.703125q-0.265625 0.265625 -0.703125 0.296875q-0.421875 0.015625 -0.703125 -0.25q-0.265625 -0.265625 -0.265625 -0.6875q0.015625 -0.4375 0.28125 -0.71875q0.265625 -0.28125 0.6875 -0.296875zm4.6068726 3.59375l-0.234375 1.234375q1.328125 -1.453125 3.03125 -1.40625q1.390625 0.03125 2.046875 0.96875q0.671875 0.921875 0.5 2.609375l-1.078125 6.453125l-1.640625 0l1.078125 -6.484375q0.0625 -0.453125 0.015625 -0.828125q-0.15625 -1.28125 -1.515625 -1.3125q-1.484375 -0.015625 -2.59375 1.59375l-1.21875 7.03125l-1.65625 0l1.71875 -9.859375l1.546875 0zm10.340698 5.3125l-1.296875 1.15625l-0.578125 3.390625l-1.640625 0l2.421875 -14.0l1.65625 0l-1.453125 8.375l1.0 -1.03125l3.5 -3.203125l2.140625 0l-4.53125 4.203125l3.125 5.65625l-1.8125 0l-2.53125 -4.546875zm11.764404 4.546875q-0.0625 -0.265625 -0.0625 -0.515625l0.03125 -0.515625q-1.359375 1.25 -2.890625 1.21875q-1.296875 -0.03125 -2.109375 -0.828125q-0.8125 -0.8125 -0.75 -2.015625q0.09375 -1.578125 1.375 -2.453125q1.28125 -0.875 3.375 -0.875l1.71875 0.015625l0.109375 -0.796875q0.09375 -0.875 -0.34375 -1.390625q-0.4375 -0.515625 -1.296875 -0.53125q-0.84375 -0.015625 -1.5 0.421875q-0.65625 0.421875 -0.796875 1.140625l-1.65625 0q0.078125 -0.859375 0.671875 -1.53125q0.59375 -0.671875 1.515625 -1.03125q0.9375 -0.375 1.921875 -0.359375q1.546875 0.03125 2.390625 0.9375q0.859375 0.890625 0.734375 2.375l-0.8125 4.890625l-0.046875 0.703125q-0.015625 0.5 0.109375 0.984375l-0.015625 0.15625l-1.671875 0zm-2.59375 -1.28125q0.796875 0.03125 1.5 -0.359375q0.71875 -0.40625 1.21875 -1.109375l0.359375 -2.03125l-1.25 -0.015625q-1.5625 0 -2.390625 0.5q-0.828125 0.484375 -0.9375 1.390625q-0.078125 0.6875 0.328125 1.15625q0.40625 0.453125 1.171875 0.46875zm15.454041 -3.59375q-0.1875 1.5 -0.84375 2.71875q-0.640625 1.203125 -1.5625 1.796875q-0.921875 0.578125 -2.03125 0.546875q-1.796875 -0.03125 -2.65625 -1.328125l-0.34375 1.140625l-1.515625 0l2.4375 -14.0l1.640625 0l-0.984375 5.234375q1.1875 -1.3125 2.875 -1.265625q1.421875 0.03125 2.203125 1.046875q0.796875 1.0 0.84375 2.78125q0.015625 0.578125 -0.046875 1.125l-0.015625 0.203125zm-1.578125 -0.96875q0.03125 -1.328125 -0.453125 -2.03125q-0.46875 -0.703125 -1.4375 -0.75q-1.53125 -0.03125 -2.609375 1.5625l-0.734375 4.28125q0.546875 1.5 2.046875 1.546875q0.96875 0.03125 1.6875 -0.578125q0.734375 -0.609375 1.109375 -1.703125q0.375 -1.109375 0.390625 -2.328125zm4.65448 5.84375l-1.640625 0l2.421875 -14.0l1.65625 0l-2.4375 14.0zm6.9662476 0.1875q-1.84375 -0.046875 -2.890625 -1.359375q-1.03125 -1.328125 -0.859375 -3.390625l0.046875 -0.390625q0.15625 -1.453125 0.859375 -2.671875q0.71875 -1.21875 1.75 -1.828125q1.03125 -0.609375 2.21875 -0.578125q1.53125 0.03125 2.390625 1.015625q0.859375 0.96875 0.953125 2.625q0.015625 0.59375 -0.046875 1.1875l-0.09375 0.75l-6.4375 0q-0.171875 1.34375 0.4375 2.28125q0.609375 0.9375 1.8125 0.984375q1.453125 0.03125 2.6875 -1.3125l0.953125 0.796875q-0.625 0.890625 -1.609375 1.40625q-0.96875 0.5 -2.171875 0.484375zm1.046875 -8.84375q-1.015625 -0.03125 -1.78125 0.6875q-0.765625 0.71875 -1.203125 2.140625l4.78125 0l0.046875 -0.140625q0.140625 -1.140625 -0.375 -1.90625q-0.515625 -0.765625 -1.46875 -0.78125z" fill-rule="nonzero"/><path fill="#cfe2f3" d="m58.842518 55.63517l140.44095 0l0 55.93701l-140.44095 0z" fill-rule="evenodd"/><path stroke="#000000" stroke-width="1.0" stroke-linejoin="round" stroke-linecap="butt" stroke-dasharray="4.0,3.0" d="m58.842518 55.63517l140.44095 0l0 55.93701l-140.44095 0z" fill-rule="evenodd"/><path fill="#000000" d="m84.33982 87.1018q0.203125 -1.453125 -1.5 -2.125l-1.578125 -0.578125l-0.53125 -0.21875q-2.65625 -1.21875 -2.484375 -3.40625q0.09375 -1.109375 0.75 -1.953125q0.671875 -0.84375 1.765625 -1.296875q1.09375 -0.46875 2.328125 -0.453125q1.203125 0.03125 2.140625 0.546875q0.953125 0.515625 1.4375 1.4375q0.5 0.90625 0.453125 2.046875l-1.734375 0q0.09375 -1.234375 -0.546875 -1.890625q-0.625 -0.671875 -1.8125 -0.6875q-1.25 -0.03125 -2.09375 0.578125q-0.828125 0.59375 -0.96875 1.640625q-0.171875 1.359375 1.671875 2.0625l1.359375 0.484375l0.6875 0.28125q2.5625 1.1875 2.375 3.515625q-0.109375 1.125 -0.765625 1.9375q-0.640625 0.8125 -1.765625 1.265625q-1.125 0.4375 -2.421875 0.421875q-1.25 -0.015625 -2.28125 -0.53125q-1.03125 -0.53125 -1.578125 -1.4375q-0.53125 -0.921875 -0.46875 -2.078125l1.703125 0.015625q-0.078125 1.1875 0.640625 1.890625q0.734375 0.6875 2.046875 0.703125q1.328125 0.015625 2.1875 -0.5625q0.859375 -0.59375 0.984375 -1.609375zm9.393692 2.453125q-1.15625 1.1875 -2.953125 1.15625q-1.40625 -0.046875 -2.09375 -1.015625q-0.671875 -0.96875 -0.5 -2.65625l1.0625 -6.375l1.640625 0l-1.0625 6.390625q-0.046875 0.40625 -0.015625 0.796875q0.046875 0.65625 0.390625 1.03125q0.34375 0.359375 0.96875 0.390625q1.765625 0.0625 2.734375 -1.421875l1.234375 -7.1875l1.640625 0l-1.703125 9.859375l-1.5625 0l0.21875 -0.96875zm12.753494 -3.90625q-0.1875 1.5 -0.84375 2.71875q-0.640625 1.203125 -1.5625 1.796875q-0.921875 0.578125 -2.03125 0.546875q-1.796875 -0.03125 -2.65625 -1.328125l-0.34375 1.140625l-1.515625 0l2.4375 -14.0l1.640625 0l-0.984375 5.234375q1.1875 -1.3125 2.875 -1.265625q1.421875 0.03125 2.203125 1.046875q0.796875 1.0 0.84375 2.78125q0.015625 0.578125 -0.046875 1.125l-0.015625 0.203125zm-1.578125 -0.96875q0.03125 -1.328125 -0.453125 -2.03125q-0.46875 -0.703125 -1.4375 -0.75q-1.53125 -0.03125 -2.609375 1.5625l-0.734375 4.28125q0.546875 1.5 2.046875 1.546875q0.96875 0.03125 1.6875 -0.578125q0.734375 -0.609375 1.109375 -1.703125q0.375 -1.109375 0.390625 -2.328125zm8.982559 3.171875q0.125 -1.015625 -1.125 -1.4375l-1.71875 -0.5q-2.15625 -0.75 -2.09375 -2.484375q0.0625 -1.296875 1.1875 -2.125q1.125 -0.84375 2.65625 -0.8125q1.484375 0.015625 2.421875 0.875q0.9375 0.84375 0.90625 2.203125l-1.640625 0q0.015625 -0.75 -0.46875 -1.203125q-0.484375 -0.46875 -1.28125 -0.484375q-0.859375 -0.015625 -1.484375 0.421875q-0.578125 0.40625 -0.65625 1.0625q-0.125 0.859375 1.046875 1.25l0.828125 0.234375q1.6875 0.4375 2.390625 1.140625q0.71875 0.703125 0.671875 1.734375q-0.0625 0.921875 -0.609375 1.609375q-0.546875 0.671875 -1.453125 1.03125q-0.90625 0.359375 -1.9375 0.34375q-1.578125 -0.03125 -2.59375 -0.921875q-1.015625 -0.890625 -0.984375 -2.3125l1.65625 0.015625q0 0.828125 0.515625 1.328125q0.53125 0.5 1.453125 0.5q0.90625 0.015625 1.5625 -0.375q0.65625 -0.40625 0.75 -1.09375zm7.48172 1.484375q0.875 0.015625 1.578125 -0.515625q0.71875 -0.53125 0.9375 -1.390625l1.5625 -0.015625q-0.140625 0.9375 -0.75 1.703125q-0.609375 0.765625 -1.53125 1.1875q-0.90625 0.421875 -1.875 0.40625q-1.234375 -0.03125 -2.09375 -0.640625q-0.84375 -0.625 -1.25 -1.734375q-0.390625 -1.125 -0.265625 -2.515625l0.046875 -0.46875q0.171875 -1.421875 0.828125 -2.53125q0.65625 -1.125 1.703125 -1.75q1.0625 -0.625 2.34375 -0.578125q1.546875 0.03125 2.46875 1.03125q0.9375 1.0 0.9375 2.546875l-1.546875 -0.015625q-0.015625 -0.96875 -0.53125 -1.5625q-0.515625 -0.59375 -1.40625 -0.625q-1.28125 -0.03125 -2.140625 0.953125q-0.84375 0.984375 -1.0625 2.75l-0.015625 0.234375q-0.0625 0.578125 -0.015625 1.203125q0.0625 1.0625 0.59375 1.6875q0.53125 0.609375 1.484375 0.640625zm11.518089 -7.171875l-0.765625 -0.078125q-1.59375 0 -2.5 1.4375l-1.203125 7.0l-1.6562424 0l1.7187424 -9.859375l1.59375 0l-0.25 1.140625q1.046875 -1.375 2.46875 -1.34375q0.296875 0 0.78125 0.140625l-0.1875 1.5625zm1.868927 8.359375l-1.640625 0l1.71875 -9.859375l1.640625 0l-1.71875 9.859375zm1.359375 -13.453125q0.421875 -0.015625 0.703125 0.25q0.28125 0.265625 0.28125 0.703125q-0.015625 0.4375 -0.28125 0.703125q-0.265625 0.265625 -0.703125 0.296875q-0.421875 0.015625 -0.703125 -0.25q-0.265625 -0.265625 -0.265625 -0.6875q0.015625 -0.4375 0.28125 -0.71875q0.265625 -0.28125 0.6875 -0.296875zm10.294373 8.578125q-0.1875 1.5 -0.84375 2.71875q-0.640625 1.203125 -1.5625 1.796875q-0.921875 0.578125 -2.03125 0.546875q-1.796875 -0.03125 -2.65625 -1.328125l-0.34375 1.140625l-1.515625 0l2.4375 -14.0l1.640625 0l-0.984375 5.234375q1.1875 -1.3125 2.875 -1.265625q1.421875 0.03125 2.203125 1.046875q0.796875 1.0 0.84375 2.78125q0.015625 0.578125 -0.046875 1.125l-0.015625 0.203125zm-1.578125 -0.96875q0.03125 -1.328125 -0.453125 -2.03125q-0.46875 -0.703125 -1.4375 -0.75q-1.53125 -0.03125 -2.609375 1.5625l-0.734375 4.28125q0.546875 1.5 2.046875 1.546875q0.96875 0.03125 1.6875 -0.578125q0.734375 -0.609375 1.109375 -1.703125q0.375 -1.109375 0.390625 -2.328125zm8.904434 5.84375q-0.0625 -0.265625 -0.0625 -0.515625l0.03125 -0.515625q-1.359375 1.25 -2.890625 1.21875q-1.296875 -0.03125 -2.109375 -0.828125q-0.8125 -0.8125 -0.75 -2.015625q0.09375 -1.578125 1.375 -2.453125q1.28125 -0.875 3.375 -0.875l1.71875 0.015625l0.109375 -0.796875q0.09375 -0.875 -0.34375 -1.390625q-0.4375 -0.515625 -1.296875 -0.53125q-0.84375 -0.015625 -1.5 0.421875q-0.65625 0.421875 -0.796875 1.140625l-1.65625 0q0.078125 -0.859375 0.671875 -1.53125q0.59375 -0.671875 1.515625 -1.03125q0.9375 -0.375 1.921875 -0.359375q1.546875 0.03125 2.390625 0.9375q0.859375 0.890625 0.734375 2.375l-0.8125 4.890625l-0.046875 0.703125q-0.015625 0.5 0.109375 0.984375l-0.015625 0.15625l-1.671875 0zm-2.59375 -1.28125q0.796875 0.03125 1.5 -0.359375q0.71875 -0.40625 1.21875 -1.109375l0.359375 -2.03125l-1.25 -0.015625q-1.5625 0 -2.390625 0.5q-0.828125 0.484375 -0.9375 1.390625q-0.078125 0.6875 0.328125 1.15625q0.40625 0.453125 1.171875 0.46875zm15.454086 -3.59375q-0.1875 1.5 -0.84375 2.71875q-0.640625 1.203125 -1.5625 1.796875q-0.921875 0.578125 -2.03125 0.546875q-1.796875 -0.03125 -2.65625 -1.328125l-0.34375 1.140625l-1.515625 0l2.4375 -14.0l1.640625 0l-0.984375 5.234375q1.1875 -1.3125 2.875 -1.265625q1.421875 0.03125 2.203125 1.046875q0.796875 1.0 0.84375 2.78125q0.015625 0.578125 -0.046875 1.125l-0.015625 0.203125zm-1.578125 -0.96875q0.03125 -1.328125 -0.453125 -2.03125q-0.46875 -0.703125 -1.4375 -0.75q-1.53125 -0.03125 -2.609375 1.5625l-0.734375 4.28125q0.546875 1.5 2.046875 1.546875q0.96875 0.03125 1.6875 -0.578125q0.734375 -0.609375 1.109375 -1.703125q0.375 -1.109375 0.390625 -2.328125zm4.654434 5.84375l-1.640625 0l2.421875 -14.0l1.65625 0l-2.4375 14.0zm6.9662476 0.1875q-1.84375 -0.046875 -2.890625 -1.359375q-1.03125 -1.328125 -0.859375 -3.390625l0.046875 -0.390625q0.15625 -1.453125 0.859375 -2.671875q0.71875 -1.21875 1.75 -1.828125q1.03125 -0.609375 2.21875 -0.578125q1.53125 0.03125 2.390625 1.015625q0.859375 0.96875 0.953125 2.625q0.015625 0.59375 -0.046875 1.1875l-0.09375 0.75l-6.4375 0q-0.171875 1.34375 0.4375 2.28125q0.609375 0.9375 1.8125 0.984375q1.453125 0.03125 2.6875 -1.3125l0.953125 0.796875q-0.625 0.890625 -1.609375 1.40625q-0.96875 0.5 -2.171875 0.484375zm1.046875 -8.84375q-1.015625 -0.03125 -1.78125 0.6875q-0.765625 0.71875 -1.203125 2.140625l4.78125 0l0.046875 -0.140625q0.140625 -1.140625 -0.375 -1.90625q-0.515625 -0.765625 -1.46875 -0.78125z" fill-rule="nonzero"/><path fill="#000000" fill-opacity="0.0" d="m587.4487 83.57218l66.70868 0" fill-rule="evenodd"/><path stroke="#000000" stroke-width="1.0" stroke-linejoin="round" stroke-linecap="butt" d="m587.4487 83.57218l60.70868 0" fill-rule="evenodd"/><path fill="#000000" stroke="#000000" stroke-width="1.0" stroke-linecap="butt" d="m648.1574 85.22391l4.538086 -1.6517258l-4.538086 -1.6517334z" fill-rule="evenodd"/><path fill="#000000" fill-opacity="0.0" d="m587.7746 52.363518l78.92914 0l0 30.330711l-78.92914 0z" fill-rule="evenodd"/><path fill="#000000" d="m601.5246 68.88102q-0.3125 -0.046875 -0.65625 -0.046875q-1.296875 0 -1.765625 1.109375l0 5.5l-1.328125 0l0 -7.75l1.296875 0l0.015625 0.90625q0.65625 -1.046875 1.84375 -1.046875q0.390625 0 0.59375 0.109375l0 1.21875zm4.4281616 6.703125q-1.578125 0 -2.5625 -1.03125q-0.984375 -1.03125 -0.984375 -2.765625l0 -0.25q0 -1.140625 0.4375 -2.046875q0.4375 -0.90625 1.21875 -1.421875q0.796875 -0.515625 1.71875 -0.515625q1.515625 0 2.34375 1.0q0.84375 1.0 0.84375 2.84375l0 0.546875l-5.25 0q0.03125 1.15625 0.671875 1.859375q0.640625 0.703125 1.625 0.703125q0.703125 0 1.1875 -0.28125q0.5 -0.296875 0.859375 -0.765625l0.8125 0.625q-0.984375 1.5 -2.921875 1.5zm-0.171875 -6.9375q-0.796875 0 -1.34375 0.59375q-0.546875 0.578125 -0.671875 1.625l3.875 0l0 -0.109375q-0.046875 -1.0 -0.546875 -1.546875q-0.484375 -0.5625 -1.3125 -0.5625zm9.233398 4.75q0 -0.546875 -0.40625 -0.84375q-0.40625 -0.296875 -1.421875 -0.5q-1.0 -0.21875 -1.59375 -0.515625q-0.578125 -0.3125 -0.875 -0.71875q-0.28125 -0.421875 -0.28125 -1.0q0 -0.9375 0.8125 -1.59375q0.8125 -0.671875 2.0625 -0.671875q1.3125 0 2.125 0.6875q0.828125 0.671875 0.828125 1.734375l-1.328125 0q0 -0.546875 -0.46875 -0.9375q-0.453125 -0.390625 -1.15625 -0.390625q-0.734375 0 -1.140625 0.3125q-0.40625 0.3125 -0.40625 0.828125q0 0.46875 0.375 0.71875q0.390625 0.25 1.375 0.46875q1.0 0.21875 1.609375 0.53125q0.609375 0.296875 0.90625 0.734375q0.296875 0.4375 0.296875 1.0625q0 1.03125 -0.828125 1.65625q-0.828125 0.625 -2.15625 0.625q-0.921875 0 -1.640625 -0.328125q-0.71875 -0.328125 -1.125 -0.921875q-0.390625 -0.59375 -0.390625 -1.28125l1.3125 0q0.046875 0.671875 0.53125 1.0625q0.5 0.390625 1.3125 0.390625q0.75 0 1.203125 -0.296875q0.46875 -0.3125 0.46875 -0.8125zm7.822754 1.28125q-0.765625 0.90625 -2.265625 0.90625q-1.234375 0 -1.890625 -0.71875q-0.640625 -0.71875 -0.65625 -2.125l0 -5.046875l1.328125 0l0 5.015625q0 1.75 1.4375 1.75q1.515625 0 2.015625 -1.125l0 -5.640625l1.328125 0l0 7.75l-1.265625 0l-0.03125 -0.765625zm4.735779 0.765625l-1.328125 0l0 -11.0l1.328125 0l0 11.0zm3.9160767 -9.625l0 1.875l1.453125 0l0 1.03125l-1.453125 0l0 4.796875q0 0.46875 0.1875 0.703125q0.203125 0.234375 0.671875 0.234375q0.21875 0 0.625 -0.09375l0 1.078125q-0.53125 0.140625 -1.015625 0.140625q-0.890625 0 -1.34375 -0.53125q-0.453125 -0.546875 -0.453125 -1.53125l0 -4.796875l-1.40625 0l0 -1.03125l1.40625 0l0 -1.875l1.328125 0z" fill-rule="nonzero"/><path fill="#000000" fill-opacity="0.0" d="m399.28348 83.57218l47.716522 0" fill-rule="evenodd"/><path stroke="#000000" stroke-width="1.0" stroke-linejoin="round" stroke-linecap="butt" d="m399.28348 83.57218l41.716522 0" fill-rule="evenodd"/><path fill="#000000" stroke="#000000" stroke-width="1.0" stroke-linecap="butt" d="m441.0 85.22391l4.538086 -1.6517258l-4.538086 -1.6517334z" fill-rule="evenodd"/></g></svg>