<svg version="1.1" viewBox="0.0 0.0 765.7979002624672 240.71128608923885" fill="none" stroke="none" stroke-linecap="square" stroke-miterlimit="10" xmlns:xlink="http://www.w3.org/1999/xlink" xmlns="http://www.w3.org/2000/svg"><clipPath id="p.0"><path d="m0 0l765.7979 0l0 240.71129l-765.7979 0l0 -240.71129z" clip-rule="nonzero"/></clipPath><g clip-path="url(#p.0)"><path fill="#000000" fill-opacity="0.0" d="m0 0l765.7979 0l0 240.71129l-765.7979 0z" fill-rule="evenodd"/><path fill="#fff2cc" d="m63.211723 141.0105l120.59493 0c16.65068 0 30.148727 16.517288 30.148727 36.892395c0 20.375092 -13.498047 36.89238 -30.148727 36.89238l-120.59493 0l0 0c-16.650684 0 -30.148731 -16.517288 -30.148731 -36.89238c0 -20.375107 13.498047 -36.892395 30.148731 -36.892395z" fill-rule="evenodd"/><path fill="#000000" fill-opacity="0.0" d="m183.80666 214.79527c-16.650696 0 -30.148743 -16.517288 -30.148743 -36.89238c0 -20.375107 13.498047 -36.892395 30.148743 -36.892395" fill-rule="evenodd"/><path fill="#000000" fill-opacity="0.0" d="m63.211723 141.0105l120.59493 0c16.65068 0 30.148727 16.517288 30.148727 36.892395c0 20.375092 -13.498047 36.89238 -30.148727 36.89238l-120.59493 0l0 0c-16.650684 0 -30.148731 -16.517288 -30.148731 -36.89238c0 -20.375107 13.498047 -36.892395 30.148731 -36.892395z" fill-rule="evenodd"/><path stroke="#000000" stroke-width="1.0" stroke-linejoin="round" stroke-linecap="butt" d="m183.80666 214.79527c-16.650696 0 -30.148743 -16.517288 -30.148743 -36.89238c0 -20.375107 13.498047 -36.892395 30.148743 -36.892395" fill-rule="evenodd"/><path stroke="#000000" stroke-width="1.0" stroke-linejoin="round" stroke-linecap="butt" d="m63.211723 141.0105l120.59493 0c16.65068 0 30.148727 16.517288 30.148727 36.892395c0 20.375092 -13.498047 36.89238 -30.148727 36.89238l-120.59493 0l0 0c-16.650684 0 -30.148731 -16.517288 -30.148731 -36.89238c0 -20.375107 13.498047 -36.892395 30.148731 -36.892395z" fill-rule="evenodd"/><path fill="#000000" d="m83.5086 180.61977q-0.25 2.09375 -1.5625 3.25q-1.296875 1.140625 -3.46875 1.140625q-2.34375 0 -3.765625 -1.6875q-1.421875 -1.6875 -1.421875 -4.515625l0 -1.265625q0 -1.859375 0.65625 -3.25q0.671875 -1.40625 1.875 -2.15625q1.21875 -0.765625 2.8125 -0.765625q2.109375 0 3.390625 1.1875q1.28125 1.171875 1.484375 3.265625l-1.765625 0q-0.21875 -1.578125 -0.984375 -2.28125q-0.765625 -0.71875 -2.125 -0.71875q-1.671875 0 -2.625 1.234375q-0.953125 1.234375 -0.953125 3.53125l0 1.28125q0 2.15625 0.890625 3.4375q0.90625 1.265625 2.53125 1.265625q1.453125 0 2.234375 -0.65625q0.78125 -0.65625 1.03125 -2.296875l1.765625 0zm3.7992096 -4.453125q1.125 -1.375 2.921875 -1.375q3.125 0 3.15625 3.515625l0 6.515625l-1.6875 0l0 -6.515625q-0.015625 -1.078125 -0.5 -1.578125q-0.46875 -0.515625 -1.484375 -0.515625q-0.8125 0 -1.4375 0.4375q-0.609375 0.4375 -0.96875 1.15625l0 7.015625l-1.671875 0l0 -14.0l1.671875 0l0 5.34375zm14.681763 8.65625q-0.140625 -0.296875 -0.234375 -1.03125q-1.171875 1.21875 -2.8125 1.21875q-1.453125 0 -2.390625 -0.828125q-0.921875 -0.828125 -0.921875 -2.09375q0 -1.53125 1.15625 -2.375q1.171875 -0.859375 3.296875 -0.859375l1.640625 0l0 -0.78125q0 -0.890625 -0.53125 -1.40625q-0.515625 -0.53125 -1.546875 -0.53125q-0.90625 0 -1.515625 0.46875q-0.609375 0.453125 -0.609375 1.09375l-1.703125 0q0 -0.734375 0.515625 -1.421875q0.53125 -0.6875 1.421875 -1.078125q0.90625 -0.40625 1.984375 -0.40625q1.703125 0 2.671875 0.859375q0.96875 0.84375 1.0 2.328125l0 4.53125q0 1.359375 0.34375 2.171875l0 0.140625l-1.765625 0zm-2.796875 -1.28125q0.796875 0 1.5 -0.40625q0.71875 -0.421875 1.03125 -1.078125l0 -2.015625l-1.3125 0q-3.109375 0 -3.109375 1.8125q0 0.796875 0.53125 1.25q0.53125 0.4375 1.359375 0.4375zm8.46048 -8.578125l0.046875 1.234375q1.125 -1.40625 2.953125 -1.40625q3.125 0 3.15625 3.515625l0 6.515625l-1.6875 0l0 -6.515625q-0.015625 -1.078125 -0.5 -1.578125q-0.46875 -0.515625 -1.484375 -0.515625q-0.8125 0 -1.4375 0.4375q-0.609375 0.4375 -0.96875 1.15625l0 7.015625l-1.671875 0l0 -9.859375l1.59375 0zm10.293732 0l0.046875 1.234375q1.125 -1.40625 2.953125 -1.40625q3.125 0 3.15625 3.515625l0 6.515625l-1.6875 0l0 -6.515625q-0.015625 -1.078125 -0.5 -1.578125q-0.46875 -0.515625 -1.484375 -0.515625q-0.8125 0 -1.4375 0.4375q-0.609375 0.4375 -0.96875 1.15625l0 7.015625l-1.671875 0l0 -9.859375l1.59375 0zm12.778114 10.046875q-2.0 0 -3.2656326 -1.3125q-1.25 -1.328125 -1.25 -3.53125l0 -0.3125q0 -1.46875 0.5625 -2.609375q0.5625 -1.15625 1.5625076 -1.796875q1.015625 -0.65625 2.1875 -0.65625q1.921875 0 2.984375 1.265625q1.0625 1.265625 1.0625 3.625l0 0.6875l-6.6718826 0q0.03125 1.46875 0.8437576 2.375q0.828125 0.890625 2.078125 0.890625q0.890625 0 1.515625 -0.359375q0.625 -0.375 1.078125 -0.96875l1.03125 0.796875q-1.234375 1.90625 -3.71875 1.90625zm-0.203125 -8.84375q-1.015625 0 -1.71875 0.75q-0.6875 0.734375 -0.8437576 2.078125l4.9375076 0l0 -0.125q-0.078125 -1.28125 -0.703125 -1.984375q-0.609375 -0.71875 -1.671875 -0.71875zm7.8369293 8.65625l-1.6875 0l0 -14.0l1.6875 0l0 14.0z" fill-rule="nonzero"/><path fill="#b6d7a8" d="m204.57552 16.944881l311.81104 0l0 73.79527l-311.81104 0z" fill-rule="evenodd"/><path stroke="#000000" stroke-width="1.0" stroke-linejoin="round" stroke-linecap="butt" d="m204.57552 16.944881l311.81104 0l0 73.79527l-311.81104 0z" fill-rule="evenodd"/><path fill="#000000" d="m313.90073 54.856266q-2.25 -0.65625 -3.28125 -1.59375q-1.03125 -0.9375 -1.03125 -2.328125q0 -1.5625 1.25 -2.59375q1.265625 -1.03125 3.265625 -1.03125q1.359375 0 2.4375 0.53125q1.078125 0.53125 1.65625 1.46875q0.59375 0.921875 0.59375 2.03125l-1.765625 0q0 -1.203125 -0.765625 -1.890625q-0.765625 -0.6875 -2.15625 -0.6875q-1.296875 0 -2.015625 0.5625q-0.71875 0.5625 -0.71875 1.578125q0 0.8125 0.6875 1.375q0.6875 0.5625 2.328125 1.03125q1.65625 0.453125 2.59375 1.015625q0.9375 0.5625 1.375 1.3125q0.453125 0.75 0.453125 1.75q0 1.609375 -1.25 2.59375q-1.25 0.96875 -3.359375 0.96875q-1.375 0 -2.5625 -0.515625q-1.171875 -0.53125 -1.8125 -1.4375q-0.640625 -0.921875 -0.640625 -2.078125l1.75 0q0 1.203125 0.890625 1.90625q0.890625 0.6875 2.375 0.6875q1.375 0 2.109375 -0.5625q0.75 -0.5625 0.75 -1.53125q0 -0.984375 -0.6875 -1.515625q-0.6875 -0.53125 -2.46875 -1.046875zm12.974274 4.9375q-0.984375 1.15625 -2.890625 1.15625q-1.578125 0 -2.40625 -0.921875q-0.8125 -0.921875 -0.828125 -2.703125l0 -6.421875l1.6875 0l0 6.375q0 2.234375 1.828125 2.234375q1.921875 0 2.5625 -1.4375l0 -7.171875l1.6875 0l0 9.859375l-1.609375 0l-0.03125 -0.96875zm12.550262 -3.84375q0 2.25 -1.046875 3.625q-1.03125 1.375 -2.78125 1.375q-1.875 0 -2.890625 -1.328125l-0.078125 1.140625l-1.546875 0l0 -14.0l1.671875 0l0 5.234375q1.03125 -1.265625 2.8125 -1.265625q1.796875 0 2.828125 1.359375q1.03125 1.34375 1.03125 3.703125l0 0.15625zm-1.6875 -0.203125q0 -1.71875 -0.671875 -2.65625q-0.65625 -0.9375 -1.90625 -0.9375q-1.671875 0 -2.40625 1.546875l0 4.265625q0.78125 1.546875 2.421875 1.546875q1.21875 0 1.890625 -0.9375q0.671875 -0.9375 0.671875 -2.828125zm9.544922 2.40625q0 -0.6875 -0.515625 -1.0625q-0.515625 -0.375 -1.796875 -0.640625q-1.28125 -0.28125 -2.03125 -0.65625q-0.75 -0.390625 -1.109375 -0.921875q-0.359375 -0.53125 -0.359375 -1.265625q0 -1.203125 1.015625 -2.03125q1.03125 -0.84375 2.625 -0.84375q1.671875 0 2.71875 0.859375q1.046875 0.859375 1.046875 2.21875l-1.6875 0q0 -0.703125 -0.59375 -1.203125q-0.59375 -0.5 -1.484375 -0.5q-0.921875 0 -1.4375 0.40625q-0.515625 0.390625 -0.515625 1.046875q0 0.609375 0.484375 0.921875q0.484375 0.3125 1.734375 0.59375q1.265625 0.28125 2.046875 0.671875q0.78125 0.390625 1.15625 0.9375q0.390625 0.546875 0.390625 1.34375q0 1.328125 -1.0625 2.125q-1.046875 0.796875 -2.734375 0.796875q-1.1875 0 -2.109375 -0.421875q-0.90625 -0.421875 -1.421875 -1.171875q-0.515625 -0.75 -0.515625 -1.625l1.6875 0q0.046875 0.84375 0.671875 1.34375q0.640625 0.5 1.6875 0.5q0.953125 0 1.53125 -0.390625q0.578125 -0.390625 0.578125 -1.03125zm7.838379 1.421875q0.890625 0 1.5625 -0.546875q0.6875 -0.546875 0.75 -1.375l1.59375 0q-0.046875 0.84375 -0.578125 1.609375q-0.53125 0.765625 -1.4375 1.234375q-0.890625 0.453125 -1.890625 0.453125q-2.015625 0 -3.203125 -1.34375q-1.1875 -1.34375 -1.1875 -3.6875l0 -0.28125q0 -1.4375 0.515625 -2.546875q0.53125 -1.125 1.515625 -1.734375q1.0 -0.625 2.34375 -0.625q1.65625 0 2.75 1.0q1.109375 0.984375 1.171875 2.5625l-1.59375 0q-0.0625 -0.953125 -0.71875 -1.5625q-0.65625 -0.625 -1.609375 -0.625q-1.28125 0 -2.0 0.921875q-0.703125 0.921875 -0.703125 2.671875l0 0.328125q0 1.703125 0.703125 2.625q0.703125 0.921875 2.015625 0.921875zm10.577881 -7.15625q-0.390625 -0.0625 -0.84375 -0.0625q-1.65625 0 -2.25 1.40625l0 7.0l-1.671875 0l0 -9.859375l1.640625 0l0.015625 1.140625q0.828125 -1.3125 2.359375 -1.3125q0.484375 0 0.75 0.125l0 1.5625zm3.3753967 8.34375l-1.6875 0l0 -9.859375l1.6875 0l0 9.859375zm-1.828125 -12.46875q0 -0.40625 0.25 -0.6875q0.25 -0.296875 0.734375 -0.296875q0.5 0 0.75 0.296875q0.265625 0.28125 0.265625 0.6875q0 0.40625 -0.265625 0.6875q-0.25 0.265625 -0.75 0.265625q-0.484375 0 -0.734375 -0.265625q-0.25 -0.28125 -0.25 -0.6875zm12.839905 7.65625q0 2.25 -1.03125 3.625q-1.015625 1.375 -2.78125 1.375q-1.796875 0 -2.828125 -1.140625l0 4.750004l-1.671875 0l0 -13.656254l1.53125 0l0.078125 1.09375q1.03125 -1.265625 2.859375 -1.265625q1.78125 0 2.8125 1.34375q1.03125 1.328125 1.03125 3.71875l0 0.15625zm-1.671875 -0.203125q0 -1.65625 -0.71875 -2.625q-0.703125 -0.96875 -1.953125 -0.96875q-1.53125 0 -2.296875 1.359375l0 4.703125q0.765625 1.359375 2.328125 1.359375q1.203125 0 1.921875 -0.953125q0.71875 -0.96875 0.71875 -2.875zm6.1074524 -7.234375l0 2.390625l1.84375 0l0 1.3125l-1.84375 0l0 6.109375q0 0.59375 0.234375 0.890625q0.25 0.296875 0.84375 0.296875q0.296875 0 0.8125 -0.109375l0 1.359375q-0.671875 0.1875 -1.296875 0.1875q-1.125 0 -1.703125 -0.6875q-0.578125 -0.6875 -0.578125 -1.9375l0 -6.109375l-1.796875 0l0 -1.3125l1.796875 0l0 -2.390625l1.6875 0zm5.6411133 12.25l-1.6875 0l0 -9.859375l1.6875 0l0 9.859375zm-1.828125 -12.46875q0 -0.40625 0.25 -0.6875q0.25 -0.296875 0.734375 -0.296875q0.5 0 0.75 0.296875q0.265625 0.28125 0.265625 0.6875q0 0.40625 -0.265625 0.6875q-0.25 0.265625 -0.75 0.265625q-0.484375 0 -0.734375 -0.265625q-0.25 -0.28125 -0.25 -0.6875zm4.0743103 7.453125q0 -1.453125 0.5625 -2.609375q0.578125 -1.15625 1.59375 -1.78125q1.015625 -0.625 2.3125 -0.625q2.015625 0 3.25 1.390625q1.25 1.390625 1.25 3.703125l0 0.125q0 1.4375 -0.546875 2.578125q-0.546875 1.140625 -1.578125 1.78125q-1.015625 0.640625 -2.359375 0.640625q-2.0 0 -3.25 -1.390625q-1.234375 -1.40625 -1.234375 -3.703125l0 -0.109375zm1.6875 0.203125q0 1.640625 0.765625 2.640625q0.765625 0.984375 2.03125 0.984375q1.296875 0 2.046875 -1.0q0.75 -1.015625 0.75 -2.828125q0 -1.625 -0.765625 -2.625q-0.765625 -1.015625 -2.046875 -1.015625q-1.25 0 -2.015625 1.0q-0.765625 0.984375 -0.765625 2.84375zm10.999268 -5.046875l0.046875 1.234375q1.125 -1.40625 2.953125 -1.40625q3.125 0 3.15625 3.515625l0 6.515625l-1.6875 0l0 -6.515625q-0.015625 -1.078125 -0.5 -1.578125q-0.46875 -0.515625 -1.484375 -0.515625q-0.8125 0 -1.4375 0.4375q-0.609375 0.4375 -0.96875 1.15625l0 7.015625l-1.671875 0l0 -9.859375l1.59375 0z" fill-rule="nonzero"/><path fill="#fff2cc" d="m544.44006 141.30971l120.59491 0c16.650696 0 30.148743 16.517288 30.148743 36.892395c0 20.375107 -13.498047 36.89238 -30.148743 36.89238l-120.59491 0l0 0c-16.650696 0 -30.148743 -16.517273 -30.148743 -36.89238c0 -20.375107 13.498047 -36.892395 30.148743 -36.892395z" fill-rule="evenodd"/><path fill="#000000" fill-opacity="0.0" d="m665.035 215.09448c-16.650635 0 -30.148682 -16.517273 -30.148682 -36.89238c0 -20.375107 13.498047 -36.892395 30.148682 -36.892395" fill-rule="evenodd"/><path fill="#000000" fill-opacity="0.0" d="m544.44006 141.30971l120.59491 0c16.650696 0 30.148743 16.517288 30.148743 36.892395c0 20.375107 -13.498047 36.89238 -30.148743 36.89238l-120.59491 0l0 0c-16.650696 0 -30.148743 -16.517273 -30.148743 -36.89238c0 -20.375107 13.498047 -36.892395 30.148743 -36.892395z" fill-rule="evenodd"/><path stroke="#000000" stroke-width="1.0" stroke-linejoin="round" stroke-linecap="butt" d="m665.035 215.09448c-16.650635 0 -30.148682 -16.517273 -30.148682 -36.89238c0 -20.375107 13.498047 -36.892395 30.148682 -36.892395" fill-rule="evenodd"/><path stroke="#000000" stroke-width="1.0" stroke-linejoin="round" stroke-linecap="butt" d="m544.44006 141.30971l120.59491 0c16.650696 0 30.148743 16.517288 30.148743 36.892395c0 20.375107 -13.498047 36.89238 -30.148743 36.89238l-120.59491 0l0 0c-16.650696 0 -30.148743 -16.517273 -30.148743 -36.89238c0 -20.375107 13.498047 -36.892395 30.148743 -36.892395z" fill-rule="evenodd"/><path fill="#000000" d="m564.73694 180.91898q-0.25 2.09375 -1.5625 3.25q-1.296875 1.140625 -3.46875 1.140625q-2.34375 0 -3.765625 -1.6875q-1.421875 -1.6875 -1.421875 -4.515625l0 -1.265625q0 -1.859375 0.65625 -3.25q0.671875 -1.40625 1.875 -2.15625q1.21875 -0.765625 2.8125 -0.765625q2.109375 0 3.390625 1.1875q1.28125 1.171875 1.484375 3.265625l-1.765625 0q-0.21875 -1.578125 -0.984375 -2.28125q-0.765625 -0.71875 -2.125 -0.71875q-1.671875 0 -2.625 1.234375q-0.953125 1.234375 -0.953125 3.53125l0 1.28125q0 2.15625 0.890625 3.4375q0.90625 1.265625 2.53125 1.265625q1.453125 0 2.234375 -0.65625q0.78125 -0.65625 1.03125 -2.296875l1.765625 0zm3.7991943 -4.453125q1.125 -1.375 2.921875 -1.375q3.125 0 3.15625 3.515625l0 6.515625l-1.6875 0l0 -6.515625q-0.015625 -1.078125 -0.5 -1.578125q-0.46875 -0.515625 -1.484375 -0.515625q-0.8125 0 -1.4375 0.4375q-0.609375 0.4375 -0.96875 1.15625l0 7.015625l-1.671875 0l0 -14.0l1.671875 0l0 5.34375zm14.681763 8.65625q-0.140625 -0.296875 -0.234375 -1.03125q-1.171875 1.21875 -2.8125 1.21875q-1.453125 0 -2.390625 -0.828125q-0.921875 -0.828125 -0.921875 -2.09375q0 -1.53125 1.15625 -2.375q1.171875 -0.859375 3.296875 -0.859375l1.640625 0l0 -0.78125q0 -0.890625 -0.53125 -1.40625q-0.515625 -0.53125 -1.546875 -0.53125q-0.90625 0 -1.515625 0.46875q-0.609375 0.453125 -0.609375 1.09375l-1.703125 0q0 -0.734375 0.515625 -1.421875q0.53125 -0.6875 1.421875 -1.078125q0.90625 -0.40625 1.984375 -0.40625q1.703125 0 2.671875 0.859375q0.96875 0.84375 1.0 2.328125l0 4.53125q0 1.359375 0.34375 2.171875l0 0.140625l-1.765625 0zm-2.796875 -1.28125q0.796875 0 1.5 -0.40625q0.71875 -0.421875 1.03125 -1.078125l0 -2.015625l-1.3125 0q-3.109375 0 -3.109375 1.8125q0 0.796875 0.53125 1.25q0.53125 0.4375 1.359375 0.4375zm8.46051 -8.578125l0.046875 1.234375q1.125 -1.40625 2.953125 -1.40625q3.125 0 3.15625 3.515625l0 6.515625l-1.6875 0l0 -6.515625q-0.015625 -1.078125 -0.5 -1.578125q-0.46875 -0.515625 -1.484375 -0.515625q-0.8125 0 -1.4375 0.4375q-0.609375 0.4375 -0.96875 1.15625l0 7.015625l-1.671875 0l0 -9.859375l1.59375 0zm10.293701 0l0.046875 1.234375q1.125 -1.40625 2.953125 -1.40625q3.125 0 3.15625 3.515625l0 6.515625l-1.6875 0l0 -6.515625q-0.015625 -1.078125 -0.5 -1.578125q-0.46875 -0.515625 -1.484375 -0.515625q-0.8125 0 -1.4375 0.4375q-0.609375 0.4375 -0.96875 1.15625l0 7.015625l-1.671875 0l0 -9.859375l1.59375 0zm12.778137 10.046875q-2.0 0 -3.265625 -1.3125q-1.25 -1.328125 -1.25 -3.53125l0 -0.3125q0 -1.46875 0.5625 -2.609375q0.5625 -1.15625 1.5625 -1.796875q1.015625 -0.65625 2.1875 -0.65625q1.921875 0 2.984375 1.265625q1.0625 1.265625 1.0625 3.625l0 0.6875l-6.671875 0q0.03125 1.46875 0.84375 2.375q0.828125 0.890625 2.078125 0.890625q0.890625 0 1.515625 -0.359375q0.625 -0.375 1.078125 -0.96875l1.03125 0.796875q-1.234375 1.90625 -3.71875 1.90625zm-0.203125 -8.84375q-1.015625 0 -1.71875 0.75q-0.6875 0.734375 -0.84375 2.078125l4.9375 0l0 -0.125q-0.078125 -1.28125 -0.703125 -1.984375q-0.609375 -0.71875 -1.671875 -0.71875zm7.836914 8.65625l-1.6875 0l0 -14.0l1.6875 0l0 14.0z" fill-rule="nonzero"/><path fill="#d9d9d9" d="m290.48026 150.2336l140.44095 0l0 55.93701l-140.44095 0z" fill-rule="evenodd"/><path stroke="#000000" stroke-width="1.0" stroke-linejoin="round" stroke-linecap="butt" stroke-dasharray="4.0,3.0" d="m290.48026 150.2336l140.44095 0l0 55.93701l-140.44095 0z" fill-rule="evenodd"/><path fill="#000000" d="m339.439 170.98398q-1.921875 -0.546875 -2.8125 -1.359375q-0.875 -0.8125 -0.875 -2.0q0 -1.34375 1.078125 -2.21875q1.078125 -0.875 2.796875 -0.875q1.171875 0 2.078125 0.453125q0.921875 0.453125 1.421875 1.25q0.515625 0.796875 0.515625 1.734375l-1.515625 0q0 -1.03125 -0.65625 -1.609375q-0.65625 -0.59375 -1.84375 -0.59375q-1.109375 0 -1.734375 0.484375q-0.625 0.484375 -0.625 1.359375q0 0.6875 0.59375 1.171875q0.59375 0.484375 2.0 0.890625q1.421875 0.390625 2.21875 0.875q0.8125 0.46875 1.1875 1.109375q0.390625 0.640625 0.390625 1.515625q0 1.375 -1.078125 2.21875q-1.078125 0.828125 -2.875 0.828125q-1.171875 0 -2.1875 -0.453125q-1.015625 -0.453125 -1.578125 -1.234375q-0.546875 -0.78125 -0.546875 -1.765625l1.515625 0q0 1.03125 0.75 1.625q0.765625 0.59375 2.046875 0.59375q1.1875 0 1.8125 -0.484375q0.640625 -0.484375 0.640625 -1.3125q0 -0.84375 -0.59375 -1.296875q-0.578125 -0.453125 -2.125 -0.90625zm9.4296875 5.234375q-1.71875 0 -2.796875 -1.125q-1.078125 -1.140625 -1.078125 -3.03125l0 -0.265625q0 -1.25 0.46875 -2.234375q0.484375 -1.0 1.34375 -1.546875q0.875 -0.5625 1.875 -0.5625q1.65625 0 2.5625 1.09375q0.921875 1.078125 0.921875 3.09375l0 0.609375l-5.734375 0q0.03125 1.25 0.734375 2.015625q0.703125 0.765625 1.78125 0.765625q0.765625 0 1.296875 -0.3125q0.53125 -0.3125 0.921875 -0.828125l0.890625 0.6875q-1.0625 1.640625 -3.1875 1.640625zm-0.1875 -7.578125q-0.875 0 -1.46875 0.640625q-0.59375 0.625 -0.734375 1.78125l4.234375 0l0 -0.109375q-0.0625 -1.109375 -0.59375 -1.703125q-0.53125 -0.609375 -1.4375 -0.609375zm9.2421875 0.265625q-0.328125 -0.0625 -0.71875 -0.0625q-1.421875 0 -1.921875 1.21875l0 6.0l-1.453125 0l0 -8.453125l1.40625 0l0.03125 0.96875q0.703125 -1.125 2.015625 -1.125q0.421875 0 0.640625 0.109375l0 1.34375zm4.1171875 5.1875l2.09375 -6.484375l1.46875 0l-3.03125 8.453125l-1.09375 0l-3.0625 -8.453125l1.46875 0l2.15625 6.484375zm6.53125 1.96875l-1.453125 0l0 -8.453125l1.453125 0l0 8.453125zm-1.5625 -10.703125q0 -0.34375 0.203125 -0.578125q0.21875 -0.25 0.640625 -0.25q0.421875 0 0.640625 0.25q0.21875 0.234375 0.21875 0.59375q0 0.34375 -0.21875 0.578125q-0.21875 0.234375 -0.640625 0.234375q-0.421875 0 -0.640625 -0.234375q-0.203125 -0.234375 -0.203125 -0.59375zm7.2578125 9.671875q0.78125 0 1.359375 -0.46875q0.578125 -0.46875 0.640625 -1.171875l1.359375 0q-0.03125 0.734375 -0.5 1.390625q-0.453125 0.65625 -1.234375 1.046875q-0.765625 0.390625 -1.625 0.390625q-1.71875 0 -2.75 -1.15625q-1.015625 -1.15625 -1.015625 -3.15625l0 -0.234375q0 -1.234375 0.453125 -2.1875q0.453125 -0.96875 1.296875 -1.5q0.859375 -0.53125 2.015625 -0.53125q1.421875 0 2.359375 0.859375q0.9375 0.84375 1.0 2.203125l-1.359375 0q-0.0625 -0.828125 -0.625 -1.34375q-0.5625 -0.53125 -1.375 -0.53125q-1.109375 0 -1.71875 0.796875q-0.59375 0.78125 -0.59375 2.28125l0 0.28125q0 1.453125 0.59375 2.25q0.609375 0.78125 1.71875 0.78125zm8.5 1.1875q-1.71875 0 -2.796875 -1.125q-1.078125 -1.140625 -1.078125 -3.03125l0 -0.265625q0 -1.25 0.46875 -2.234375q0.484375 -1.0 1.34375 -1.546875q0.875 -0.5625 1.875 -0.5625q1.65625 0 2.5625 1.09375q0.921875 1.078125 0.921875 3.09375l0 0.609375l-5.734375 0q0.03125 1.25 0.734375 2.015625q0.703125 0.765625 1.78125 0.765625q0.765625 0 1.296875 -0.3125q0.53125 -0.3125 0.921875 -0.828125l0.890625 0.6875q-1.0625 1.640625 -3.1875 1.640625zm-0.1875 -7.578125q-0.875 0 -1.46875 0.640625q-0.59375 0.625 -0.734375 1.78125l4.234375 0l0 -0.109375q-0.0625 -1.109375 -0.59375 -1.703125q-0.53125 -0.609375 -1.4375 -0.609375z" fill-rule="nonzero"/><path fill="#000000" d="m325.85138 188.68959q0.21875 -1.515625 0.796875 -2.9375q0.59375 -1.421875 1.4375 -2.421875q0.84375 -1.015625 1.890625 -1.53125l0.171875 0.8125q-1.03125 0.765625 -1.765625 2.0q-0.71875 1.21875 -1.125 2.90625q-0.390625 1.6875 -0.375 3.328125q0 1.34375 0.34375 2.359375q0.34375 1.03125 1.0 1.625l-0.28125 0.734375q-1.09375 -0.765625 -1.671875 -2.25q-0.578125 -1.46875 -0.515625 -3.375q0.015625 -0.625 0.09375 -1.1875l0 -0.0625zm11.827667 -4.640625l-2.9375 0l-1.46875 8.453125l-1.21875 0l1.46875 -8.453125l-2.953125 0l0.1875 -1.015625l7.109375 0l-0.1875 1.015625zm4.0894165 8.453125q-0.046875 -0.1875 -0.046875 -0.375l0.015625 -0.359375q-0.96875 0.890625 -2.0625 0.859375q-0.921875 -0.015625 -1.515625 -0.578125q-0.578125 -0.578125 -0.515625 -1.453125q0.0625 -1.109375 0.96875 -1.734375q0.921875 -0.640625 2.40625 -0.640625l1.234375 0.015625l0.078125 -0.5625q0.0625 -0.625 -0.25 -1.0q-0.3125 -0.375 -0.921875 -0.375q-0.609375 -0.015625 -1.078125 0.296875q-0.453125 0.296875 -0.5625 0.8125l-1.1875 0q0.0625 -0.609375 0.484375 -1.09375q0.421875 -0.484375 1.078125 -0.734375q0.671875 -0.265625 1.375 -0.25q1.109375 0.015625 1.71875 0.65625q0.609375 0.640625 0.515625 1.703125l-0.578125 3.484375l-0.03125 0.515625q-0.015625 0.34375 0.078125 0.703125l-0.015625 0.109375l-1.1875 0zm-1.859375 -0.90625q0.578125 0.015625 1.078125 -0.265625q0.5 -0.296875 0.859375 -0.796875l0.265625 -1.453125l-0.890625 0q-1.125 0 -1.71875 0.359375q-0.578125 0.34375 -0.65625 0.984375q-0.0625 0.5 0.21875 0.828125q0.296875 0.328125 0.84375 0.34375zm9.021973 -5.0625l-0.546875 -0.0625q-1.140625 0 -1.78125 1.03125l-0.875 5.0l-1.171875 0l1.21875 -7.046875l1.140625 0l-0.171875 0.8125q0.75 -0.96875 1.765625 -0.953125q0.203125 0 0.5625 0.09375l-0.140625 1.125zm0.407135 2.4375q0.15625 -1.15625 0.625 -2.0q0.46875 -0.859375 1.125 -1.265625q0.671875 -0.40625 1.46875 -0.375q1.21875 0.015625 1.84375 0.921875l0.234375 -0.796875l1.078125 0l-1.171875 6.890625q-0.1875 1.359375 -1.09375 2.15625q-0.90625 0.8125 -2.234375 0.78125q-0.703125 -0.015625 -1.359375 -0.34375q-0.65625 -0.328125 -1.03125 -0.890625l0.671875 -0.71875q0.625 0.9375 1.671875 0.96875q0.84375 0.03125 1.421875 -0.46875q0.59375 -0.5 0.78125 -1.40625l0.125 -0.625q-0.859375 0.859375 -2.015625 0.828125q-0.65625 -0.015625 -1.140625 -0.34375q-0.484375 -0.34375 -0.75 -0.96875q-0.265625 -0.640625 -0.296875 -1.421875q0 -0.390625 0.046875 -0.921875zm1.140625 0.671875q-0.015625 0.921875 0.3125 1.4375q0.34375 0.515625 1.046875 0.53125q1.046875 0.03125 1.8125 -1.03125l0.546875 -3.234375q-0.390625 -0.96875 -1.40625 -1.0q-0.953125 -0.03125 -1.578125 0.78125q-0.609375 0.8125 -0.71875 2.171875l-0.015625 0.34375zm8.88385 2.984375q-1.3125 -0.015625 -2.0625 -0.953125q-0.734375 -0.953125 -0.625 -2.421875l0.03125 -0.28125q0.109375 -1.046875 0.625 -1.90625q0.515625 -0.875 1.25 -1.3125q0.734375 -0.4375 1.578125 -0.421875q1.09375 0.03125 1.703125 0.734375q0.625 0.6875 0.6875 1.875q0.015625 0.421875 -0.03125 0.84375l-0.0625 0.546875l-4.609375 0q-0.109375 0.953125 0.3125 1.625q0.4375 0.671875 1.296875 0.6875q1.046875 0.03125 1.921875 -0.9375l0.6875 0.578125q-0.453125 0.640625 -1.15625 1.0q-0.6875 0.359375 -1.546875 0.34375zm0.75 -6.3125q-0.734375 -0.015625 -1.28125 0.5q-0.53125 0.5 -0.859375 1.515625l3.421875 0.015625l0.03125 -0.109375q0.109375 -0.8125 -0.265625 -1.359375q-0.375 -0.546875 -1.046875 -0.5625zm6.223877 -2.5625l-0.296875 1.703125l1.28125 0l-0.171875 0.9375l-1.265625 0l-0.734375 4.375q-0.015625 0.171875 -0.015625 0.3125q0.046875 0.515625 0.5625 0.515625q0.21875 0 0.5625 -0.0625l-0.078125 0.96875q-0.421875 0.125 -0.859375 0.125q-0.703125 -0.015625 -1.0625 -0.515625q-0.34375 -0.5 -0.265625 -1.359375l0.703125 -4.359375l-1.234375 0l0.15625 -0.9375l1.25 0l0.296875 -1.703125l1.171875 0zm5.4918213 8.75q-0.046875 -0.1875 -0.046875 -0.375l0.015625 -0.359375q-0.96875 0.890625 -2.0625 0.859375q-0.921875 -0.015625 -1.515625 -0.578125q-0.578125 -0.578125 -0.515625 -1.453125q0.0625 -1.109375 0.96875 -1.734375q0.921875 -0.640625 2.40625 -0.640625l1.234375 0.015625l0.078125 -0.5625q0.0625 -0.625 -0.25 -1.0q-0.3125 -0.375 -0.921875 -0.375q-0.609375 -0.015625 -1.078125 0.296875q-0.453125 0.296875 -0.5625 0.8125l-1.1875 0q0.0625 -0.609375 0.484375 -1.09375q0.421875 -0.484375 1.078125 -0.734375q0.671875 -0.265625 1.375 -0.25q1.109375 0.015625 1.71875 0.65625q0.609375 0.640625 0.515625 1.703125l-0.578125 3.484375l-0.03125 0.515625q-0.015625 0.34375 0.078125 0.703125l-0.015625 0.109375l-1.1875 0zm-1.859375 -0.90625q0.578125 0.015625 1.078125 -0.265625q0.5 -0.296875 0.859375 -0.796875l0.265625 -1.453125l-0.890625 0q-1.125 0 -1.71875 0.359375q-0.578125 0.34375 -0.65625 0.984375q-0.0625 0.5 0.21875 0.828125q0.296875 0.328125 0.84375 0.34375zm11.037598 -2.578125q-0.125 1.078125 -0.59375 1.953125q-0.46875 0.859375 -1.125 1.28125q-0.65625 0.40625 -1.453125 0.390625q-1.28125 -0.03125 -1.890625 -0.953125l-0.25 0.8125l-1.078125 0l1.734375 -10.0l1.1875 0l-0.71875 3.734375q0.84375 -0.9375 2.0625 -0.90625q1.015625 0.03125 1.578125 0.75q0.5625 0.71875 0.59375 1.984375q0.015625 0.421875 -0.03125 0.8125l-0.015625 0.140625zm-1.125 -0.6875q0.03125 -0.953125 -0.3125 -1.453125q-0.34375 -0.5 -1.03125 -0.53125q-1.109375 -0.03125 -1.859375 1.109375l-0.53125 3.0625q0.390625 1.078125 1.46875 1.09375q0.6875 0.03125 1.203125 -0.40625q0.515625 -0.4375 0.78125 -1.21875q0.265625 -0.78125 0.28125 -1.65625zm3.336975 4.171875l-1.171875 0l1.71875 -10.0l1.1875 0l-1.734375 10.0zm4.967499 0.125q-1.3125 -0.015625 -2.0625 -0.953125q-0.734375 -0.953125 -0.625 -2.421875l0.03125 -0.28125q0.109375 -1.046875 0.625 -1.90625q0.515625 -0.875 1.25 -1.3125q0.734375 -0.4375 1.578125 -0.421875q1.09375 0.03125 1.703125 0.734375q0.625 0.6875 0.6875 1.875q0.015625 0.421875 -0.03125 0.84375l-0.0625 0.546875l-4.609375 0q-0.109375 0.953125 0.3125 1.625q0.4375 0.671875 1.296875 0.6875q1.046875 0.03125 1.921875 -0.9375l0.6875 0.578125q-0.453125 0.640625 -1.15625 1.0q-0.6875 0.359375 -1.546875 0.34375zm0.75 -6.3125q-0.734375 -0.015625 -1.28125 0.5q-0.53125 0.5 -0.859375 1.515625l3.421875 0.015625l0.03125 -0.109375q0.109375 -0.8125 -0.265625 -1.359375q-0.375 -0.546875 -1.046875 -0.5625zm6.473877 2.375q-0.234375 1.59375 -0.828125 3.015625q-0.59375 1.40625 -1.4375 2.375q-0.828125 0.984375 -1.84375 1.484375l-0.1875 -0.75q2.234375 -1.671875 2.984375 -5.390625q0.296875 -1.5 0.28125 -2.890625q-0.03125 -2.78125 -1.359375 -4.0l0.3125 -0.71875q0.734375 0.5 1.234375 1.34375q0.5 0.84375 0.734375 1.96875q0.25 1.109375 0.21875 2.3125q-0.015625 0.625 -0.09375 1.1875l-0.015625 0.0625z" fill-rule="nonzero"/><path fill="#000000" fill-opacity="0.0" d="m360.48102 90.74016c0 14.873421 0.055145264 22.30983 0.11026001 29.746841c0.055114746 7.437004 0.11022949 14.874603 0.11022949 29.749222" fill-rule="evenodd"/><path stroke="#000000" stroke-width="1.0" stroke-linejoin="round" stroke-linecap="butt" d="m360.48105 90.74016c0 14.873421 0.055114746 22.309837 0.11022949 29.746841c0.027557373 3.7185059 0.055114746 7.437149 0.075805664 12.08551c0.010314941 2.324173 0.018951416 4.880783 0.024963379 7.7859955l0.005859375 3.877716" fill-rule="evenodd"/><path fill="#000000" stroke="#000000" stroke-width="1.0" stroke-linecap="butt" d="m359.04617 144.23721l1.65448 4.5371094l1.6489868 -4.539093z" fill-rule="evenodd"/><path fill="#000000" fill-opacity="0.0" d="m516.38654 53.842518c44.173218 0 88.346436 43.73229 88.346436 87.46457" fill-rule="evenodd"/><path stroke="#000000" stroke-width="1.0" stroke-linejoin="round" stroke-linecap="butt" d="m516.38654 53.842518c22.08667 0 44.17328 10.933071 60.73822 27.332676c8.282471 8.199806 15.18457 17.766243 20.015991 28.015999c2.4157104 5.124878 4.313843 10.420578 5.60791 15.801704c0.6470947 2.690567 1.1431274 5.4024734 1.477478 8.125053c0.08355713 0.68066406 0.15704346 1.361969 0.22027588 2.0437775l0.012878418 0.15159607" fill-rule="evenodd"/><path fill="#000000" stroke="#000000" stroke-width="1.0" stroke-linecap="butt" d="m602.80927 135.38869l1.8570557 4.458023l1.4429932 -4.608734z" fill-rule="evenodd"/><path fill="#000000" fill-opacity="0.0" d="m160.12564 22.32021l64.81889 0l0 30.330708l-64.81889 0z" fill-rule="evenodd"/><path fill="#000000" d="m170.78189 45.40021l0 -6.71875l-1.234375 0l0 -1.03125l1.234375 0l0 -0.78125q0 -1.25 0.65625 -1.921875q0.671875 -0.6875 1.890625 -0.6875q0.453125 0 0.90625 0.125l-0.078125 1.0625q-0.328125 -0.0625 -0.703125 -0.0625q-0.65625 0 -1.0 0.375q-0.34375 0.375 -0.34375 1.078125l0 0.8125l1.640625 0l0 1.03125l-1.640625 0l0 6.71875l-1.328125 0zm8.181931 -6.5625q-0.3125 -0.046875 -0.65625 -0.046875q-1.296875 0 -1.765625 1.109375l0 5.5l-1.328125 0l0 -7.75l1.296875 0l0.015625 0.90625q0.65625 -1.046875 1.84375 -1.046875q0.390625 0 0.59375 0.109375l0 1.21875zm0.86561584 2.625q0 -1.140625 0.4375 -2.046875q0.453125 -0.921875 1.25 -1.40625q0.796875 -0.5 1.828125 -0.5q1.578125 0 2.546875 1.09375q0.984375 1.09375 0.984375 2.921875l0 0.09375q0 1.125 -0.4375 2.03125q-0.4375 0.890625 -1.25 1.390625q-0.796875 0.5 -1.84375 0.5q-1.5625 0 -2.546875 -1.09375q-0.96875 -1.09375 -0.96875 -2.890625l0 -0.09375zm1.328125 0.15625q0 1.28125 0.59375 2.0625q0.59375 0.78125 1.59375 0.78125q1.015625 0 1.609375 -0.78125q0.59375 -0.796875 0.59375 -2.21875q0 -1.28125 -0.609375 -2.0625q-0.59375 -0.796875 -1.59375 -0.796875q-0.984375 0 -1.59375 0.78125q-0.59375 0.78125 -0.59375 2.234375zm8.624268 -3.96875l0.03125 0.859375q0.859375 -1.0 2.296875 -1.0q1.625 0 2.21875 1.25q0.375 -0.5625 1.0 -0.90625q0.625 -0.34375 1.46875 -0.34375q2.546875 0 2.578125 2.703125l0 5.1875l-1.3125 0l0 -5.109375q0 -0.828125 -0.390625 -1.234375q-0.375 -0.421875 -1.265625 -0.421875q-0.734375 0 -1.234375 0.453125q-0.484375 0.4375 -0.5625 1.171875l0 5.140625l-1.328125 0l0 -5.078125q0 -1.6875 -1.65625 -1.6875q-1.296875 0 -1.78125 1.109375l0 5.65625l-1.3125 0l0 -7.75l1.25 0z" fill-rule="nonzero"/><path fill="#000000" fill-opacity="0.0" d="m357.39072 97.826775l64.81891 0l0 30.330711l-64.81891 0z" fill-rule="evenodd"/><path fill="#000000" d="m370.5001 119.96927q0.703125 0 1.234375 -0.421875q0.53125 -0.4375 0.59375 -1.078125l1.25 0q-0.03125 0.65625 -0.453125 1.265625q-0.421875 0.59375 -1.140625 0.953125q-0.703125 0.359375 -1.484375 0.359375q-1.578125 0 -2.515625 -1.046875q-0.9375 -1.0625 -0.9375 -2.890625l0 -0.21875q0 -1.140625 0.40625 -2.015625q0.421875 -0.875 1.203125 -1.359375q0.78125 -0.5 1.828125 -0.5q1.3125 0 2.171875 0.78125q0.859375 0.78125 0.921875 2.03125l-1.25 0q-0.0625 -0.75 -0.578125 -1.234375q-0.5 -0.484375 -1.265625 -0.484375q-1.0 0 -1.5625 0.734375q-0.546875 0.71875 -0.546875 2.09375l0 0.25q0 1.328125 0.546875 2.0625q0.546875 0.71875 1.578125 0.71875zm9.343506 0.9375q-0.109375 -0.234375 -0.1875 -0.8125q-0.921875 0.953125 -2.203125 0.953125q-1.140625 0 -1.875 -0.640625q-0.734375 -0.65625 -0.734375 -1.640625q0 -1.21875 0.921875 -1.875q0.921875 -0.671875 2.578125 -0.671875l1.296875 0l0 -0.609375q0 -0.703125 -0.421875 -1.109375q-0.40625 -0.40625 -1.21875 -0.40625q-0.703125 0 -1.1875 0.359375q-0.484375 0.34375 -0.484375 0.859375l-1.328125 0q0 -0.578125 0.40625 -1.109375q0.421875 -0.546875 1.125 -0.859375q0.703125 -0.328125 1.546875 -0.328125q1.34375 0 2.09375 0.671875q0.765625 0.671875 0.796875 1.84375l0 3.5625q0 1.0625 0.265625 1.703125l0 0.109375l-1.390625 0zm-2.203125 -1.015625q0.625 0 1.1875 -0.3125q0.5625 -0.328125 0.8125 -0.84375l0 -1.578125l-1.046875 0q-2.421875 0 -2.421875 1.421875q0 0.625 0.40625 0.96875q0.421875 0.34375 1.0625 0.34375zm6.8315735 1.015625l-1.328125 0l0 -11.0l1.328125 0l0 11.0zm3.5567322 0l-1.328125 0l0 -11.0l1.328125 0l0 11.0z" fill-rule="nonzero"/><path fill="#000000" fill-opacity="0.0" d="m514.80804 25.82677l64.81891 0l0 30.330711l-64.81891 0z" fill-rule="evenodd"/><path fill="#000000" d="m528.55804 42.344273q-0.3125 -0.046875 -0.65625 -0.046875q-1.296875 0 -1.765625 1.109375l0 5.5l-1.328125 0l0 -7.75l1.296875 0l0.015625 0.90625q0.65625 -1.046875 1.84375 -1.046875q0.390625 0 0.59375 0.109375l0 1.21875zm4.4281006 6.703125q-1.578125 0 -2.5625 -1.03125q-0.984375 -1.03125 -0.984375 -2.765625l0 -0.25q0 -1.140625 0.4375 -2.046875q0.4375 -0.90625 1.21875 -1.421875q0.796875 -0.515625 1.71875 -0.515625q1.515625 0 2.34375 1.0q0.84375 1.0 0.84375 2.84375l0 0.546875l-5.25 0q0.03125 1.15625 0.671875 1.859375q0.640625 0.703125 1.625 0.703125q0.703125 0 1.1875 -0.28125q0.5 -0.296875 0.859375 -0.765625l0.8125 0.625q-0.984375 1.5 -2.921875 1.5zm-0.171875 -6.9375q-0.796875 0 -1.34375 0.59375q-0.546875 0.578125 -0.671875 1.625l3.875 0l0 -0.109375q-0.046875 -1.0 -0.546875 -1.546875q-0.484375 -0.5625 -1.3125 -0.5625zm9.233459 4.75q0 -0.546875 -0.40625 -0.84375q-0.40625 -0.296875 -1.421875 -0.5q-1.0 -0.21875 -1.59375 -0.515625q-0.578125 -0.3125 -0.875 -0.71875q-0.28125 -0.421875 -0.28125 -1.0q0 -0.9375 0.8125 -1.59375q0.8125 -0.671875 2.0625 -0.671875q1.3125 0 2.125 0.6875q0.828125 0.671875 0.828125 1.734375l-1.328125 0q0 -0.546875 -0.46875 -0.9375q-0.453125 -0.390625 -1.15625 -0.390625q-0.734375 0 -1.140625 0.3125q-0.40625 0.3125 -0.40625 0.828125q0 0.46875 0.375 0.71875q0.390625 0.25 1.375 0.46875q1.0 0.21875 1.609375 0.53125q0.609375 0.296875 0.90625 0.734375q0.296875 0.4375 0.296875 1.0625q0 1.03125 -0.828125 1.65625q-0.828125 0.625 -2.15625 0.625q-0.921875 0 -1.640625 -0.328125q-0.71875 -0.328125 -1.125 -0.921875q-0.390625 -0.59375 -0.390625 -1.28125l1.3125 0q0.046875 0.671875 0.53125 1.0625q0.5 0.390625 1.3125 0.390625q0.75 0 1.203125 -0.296875q0.46875 -0.3125 0.46875 -0.8125zm7.822754 1.28125q-0.765625 0.90625 -2.265625 0.90625q-1.234375 0 -1.890625 -0.71875q-0.640625 -0.71875 -0.65625 -2.125l0 -5.046875l1.328125 0l0 5.015625q0 1.75 1.4375 1.75q1.515625 0 2.015625 -1.125l0 -5.640625l1.328125 0l0 7.75l-1.265625 0l-0.03125 -0.765625zm4.735779 0.765625l-1.328125 0l0 -11.0l1.328125 0l0 11.0zm3.9160767 -9.625l0 1.875l1.453125 0l0 1.03125l-1.453125 0l0 4.796875q0 0.46875 0.1875 0.703125q0.203125 0.234375 0.671875 0.234375q0.21875 0 0.625 -0.09375l0 1.078125q-0.53125 0.140625 -1.015625 0.140625q-0.890625 0 -1.34375 -0.53125q-0.453125 -0.546875 -0.453125 -1.53125l0 -4.796875l-1.40625 0l0 -1.03125l1.40625 0l0 -1.875l1.328125 0z" fill-rule="nonzero"/><path fill="#000000" fill-opacity="0.0" d="m182.95268 178.61154l107.52757 -0.4094391" fill-rule="evenodd"/><path stroke="#9900ff" stroke-width="3.0" stroke-linejoin="round" stroke-linecap="butt" d="m182.9527 178.61154l89.52768 -0.3408966" fill-rule="evenodd"/><path fill="#9900ff" stroke="#9900ff" stroke-width="3.0" stroke-linecap="butt" d="m272.49927 183.2258l13.595306 -5.007004l-13.633057 -4.9033203z" fill-rule="evenodd"/><path fill="#000000" fill-opacity="0.0" d="m430.9212 178.2021l83.370056 0" fill-rule="evenodd"/><path stroke="#9900ff" stroke-width="3.0" stroke-linejoin="round" stroke-linecap="butt" d="m430.92117 178.2021l65.37009 0" fill-rule="evenodd"/><path fill="#9900ff" stroke="#9900ff" stroke-width="3.0" stroke-linecap="butt" d="m496.29126 183.1573l13.614288 -4.9552l-13.614288 -4.9552z" fill-rule="evenodd"/><path fill="#000000" fill-opacity="0.0" d="m666.94226 177.04462l94.236206 -0.03149414" fill-rule="evenodd"/><path stroke="#9900ff" stroke-width="3.0" stroke-linejoin="round" stroke-linecap="butt" d="m666.94226 177.04462l76.236206 -0.025482178" fill-rule="evenodd"/><path fill="#9900ff" stroke="#9900ff" stroke-width="3.0" stroke-linecap="butt" d="m743.1801 181.97433l13.612671 -4.9597473l-13.615967 -4.950638z" fill-rule="evenodd"/><path fill="#9900ff" d="m246.44882 177.64264l0 0c0 -4.7661743 3.729782 -8.629929 8.330704 -8.629929l0 0c2.2094574 0 4.3283844 0.90922546 5.8907013 2.527649c1.5623169 1.6184235 2.4400024 3.8134766 2.4400024 6.1022797l0 0c0 4.7661743 -3.7297668 8.629913 -8.330704 8.629913l0 0c-4.6009216 0 -8.330704 -3.863739 -8.330704 -8.629913z" fill-rule="evenodd"/><path stroke="#000000" stroke-width="1.0" stroke-linejoin="round" stroke-linecap="butt" d="m246.44882 177.64264l0 0c0 -4.7661743 3.729782 -8.629929 8.330704 -8.629929l0 0c2.2094574 0 4.3283844 0.90922546 5.8907013 2.527649c1.5623169 1.6184235 2.4400024 3.8134766 2.4400024 6.1022797l0 0c0 4.7661743 -3.7297668 8.629913 -8.330704 8.629913l0 0c-4.6009216 0 -8.330704 -3.863739 -8.330704 -8.629913z" fill-rule="evenodd"/><path fill="#9900ff" d="m223.30832 177.64264l0 0c0 -4.7661743 3.7297974 -8.629929 8.330719 -8.629929l0 0c2.2094421 0 4.3283844 0.90922546 5.8907013 2.527649c1.5623016 1.6184235 2.4400024 3.8134766 2.4400024 6.1022797l0 0c0 4.7661743 -3.729782 8.629913 -8.330704 8.629913l0 0c-4.6009216 0 -8.330719 -3.863739 -8.330719 -8.629913z" fill-rule="evenodd"/><path stroke="#000000" stroke-width="1.0" stroke-linejoin="round" stroke-linecap="butt" d="m223.30832 177.64264l0 0c0 -4.7661743 3.7297974 -8.629929 8.330719 -8.629929l0 0c2.2094421 0 4.3283844 0.90922546 5.8907013 2.527649c1.5623016 1.6184235 2.4400024 3.8134766 2.4400024 6.1022797l0 0c0 4.7661743 -3.729782 8.629913 -8.330704 8.629913l0 0c-4.6009216 0 -8.330719 -3.863739 -8.330719 -8.629913z" fill-rule="evenodd"/><path fill="#9900ff" d="m470.7152 177.64264l0 0c0 -4.7661743 3.7297974 -8.629929 8.330719 -8.629929l0 0c2.2094421 0 4.3283997 0.90922546 5.8907166 2.527649c1.5622864 1.6184235 2.4400024 3.8134766 2.4400024 6.1022797l0 0c0 4.7661743 -3.7297974 8.629913 -8.330719 8.629913l0 0c-4.6009216 0 -8.330719 -3.863739 -8.330719 -8.629913z" fill-rule="evenodd"/><path stroke="#000000" stroke-width="1.0" stroke-linejoin="round" stroke-linecap="butt" d="m470.7152 177.64264l0 0c0 -4.7661743 3.7297974 -8.629929 8.330719 -8.629929l0 0c2.2094421 0 4.3283997 0.90922546 5.8907166 2.527649c1.5622864 1.6184235 2.4400024 3.8134766 2.4400024 6.1022797l0 0c0 4.7661743 -3.7297974 8.629913 -8.330719 8.629913l0 0c-4.6009216 0 -8.330719 -3.863739 -8.330719 -8.629913z" fill-rule="evenodd"/><path fill="#9900ff" d="m439.57474 177.64264l0 0c0 -4.7661743 3.7297668 -8.629929 8.330688 -8.629929l0 0c2.2094421 0 4.3283997 0.90922546 5.8907166 2.527649c1.5623169 1.6184235 2.4400024 3.8134766 2.4400024 6.1022797l0 0c0 4.7661743 -3.7297974 8.629913 -8.330719 8.629913l0 0c-4.6009216 0 -8.330688 -3.863739 -8.330688 -8.629913z" fill-rule="evenodd"/><path stroke="#000000" stroke-width="1.0" stroke-linejoin="round" stroke-linecap="butt" d="m439.57474 177.64264l0 0c0 -4.7661743 3.7297668 -8.629929 8.330688 -8.629929l0 0c2.2094421 0 4.3283997 0.90922546 5.8907166 2.527649c1.5623169 1.6184235 2.4400024 3.8134766 2.4400024 6.1022797l0 0c0 4.7661743 -3.7297974 8.629913 -8.330719 8.629913l0 0c-4.6009216 0 -8.330688 -3.863739 -8.330688 -8.629913z" fill-rule="evenodd"/><path fill="#9900ff" d="m706.41724 177.64264l0 0c0 -4.7661743 3.7297974 -8.629929 8.3307495 -8.629929l0 0c2.2094116 0 4.328369 0.90922546 5.890686 2.527649c1.5623169 1.6184235 2.4400024 3.8134766 2.4400024 6.1022797l0 0c0 4.7661743 -3.7297974 8.629913 -8.330688 8.629913l0 0c-4.600952 0 -8.3307495 -3.863739 -8.3307495 -8.629913z" fill-rule="evenodd"/><path stroke="#000000" stroke-width="1.0" stroke-linejoin="round" stroke-linecap="butt" d="m706.41724 177.64264l0 0c0 -4.7661743 3.7297974 -8.629929 8.3307495 -8.629929l0 0c2.2094116 0 4.328369 0.90922546 5.890686 2.527649c1.5623169 1.6184235 2.4400024 3.8134766 2.4400024 6.1022797l0 0c0 4.7661743 -3.7297974 8.629913 -8.330688 8.629913l0 0c-4.600952 0 -8.3307495 -3.863739 -8.3307495 -8.629913z" fill-rule="evenodd"/><path fill="#000000" fill-opacity="0.0" d="m204.57552 53.842518c-40.53543 0 -81.07086 43.59055 -81.07086 87.18111" fill-rule="evenodd"/><path stroke="#000000" stroke-width="1.0" stroke-linejoin="round" stroke-linecap="butt" d="m204.57552 53.842518c-20.267715 0 -40.53543 10.89764 -55.73622 27.244099c-7.6003876 8.173225 -13.9340515 17.708656 -18.367615 27.925194c-2.2167816 5.1082687 -3.9585342 10.38681 -5.1460953 15.750496c-0.5937805 2.681839 -1.0490112 5.3849564 -1.3557968 8.098732c-0.0766983 0.6784363 -0.14412689 1.357544 -0.20210266 2.0371552l-0.010253906 0.13075256" fill-rule="evenodd"/><path fill="#000000" stroke="#000000" stroke-width="1.0" stroke-linecap="butt" d="m122.10717 134.95937l1.4590759 4.603653l1.8414612 -4.4644775z" fill-rule="evenodd"/><path fill="#000000" fill-opacity="0.0" d="m2.6377952 179.13124l30.425198 -1.2283478" fill-rule="evenodd"/><path stroke="#9900ff" stroke-width="3.0" stroke-linejoin="round" stroke-linecap="butt" d="m2.6377952 179.13124l12.439849 -0.50224304" fill-rule="evenodd"/><path fill="#9900ff" stroke="#9900ff" stroke-width="3.0" stroke-linecap="butt" d="m15.277536 183.58017l13.403318 -5.500366l-13.803102 -4.4019623z" fill-rule="evenodd"/></g></svg>