<svg version="1.1" viewBox="0.0 0.0 192.03674540682414 192.4435695538058" fill="none" stroke="none" stroke-linecap="square" stroke-miterlimit="10" xmlns:xlink="http://www.w3.org/1999/xlink" xmlns="http://www.w3.org/2000/svg"><clipPath id="p.0"><path d="m0 0l192.03674 0l0 192.44357l-192.03674 0l0 -192.44357z" clip-rule="nonzero"/></clipPath><g clip-path="url(#p.0)"><path fill="#000000" fill-opacity="0.0" d="m0 0l192.03674 0l0 192.44357l-192.03674 0z" fill-rule="evenodd"/><path fill="#ffe599" d="m0 136.97113l13.889764 0l0 -13.889763l163.937 0l0 13.889763l13.8897705 0l0 27.779526l-13.8897705 0l0 13.8897705l-163.937 0l0 -13.8897705l-13.889764 0z" fill-rule="evenodd"/><path stroke="#000000" stroke-width="1.0" stroke-linejoin="round" stroke-linecap="butt" d="m0 136.97113l13.889764 0l0 -13.889763l163.937 0l0 13.889763l13.8897705 0l0 27.779526l-13.8897705 0l0 13.8897705l-163.937 0l0 -13.8897705l-13.889764 0z" fill-rule="evenodd"/><path fill="#000000" d="m18.320076 152.62839q-0.1875 1.65625 -1.21875 2.5625q-1.03125 0.890625 -2.734375 0.890625q-1.84375 0 -2.953125 -1.3125q-1.109375 -1.328125 -1.109375 -3.546875l0 -1.0q0 -1.453125 0.515625 -2.546875q0.515625 -1.109375 1.46875 -1.703125q0.953125 -0.59375 2.203125 -0.59375q1.65625 0 2.65625 0.9375q1.0 0.921875 1.171875 2.546875l-1.375 0q-0.1875 -1.234375 -0.78125 -1.796875q-0.59375 -0.5625 -1.671875 -0.5625q-1.3125 0 -2.0625 0.984375q-0.75 0.96875 -0.75 2.765625l0 1.0q0 1.703125 0.703125 2.703125q0.71875 1.0 1.984375 1.0q1.140625 0 1.75 -0.515625q0.625 -0.515625 0.828125 -1.8125l1.375 0zm3.101944 3.3125l-1.328125 0l0 -11.0l1.328125 0l0 11.0zm6.900467 -0.765625q-0.765625 0.90625 -2.265625 0.90625q-1.234375 0 -1.890625 -0.71875q-0.640625 -0.71875 -0.65625 -2.125l0 -5.046875l1.328125 0l0 5.015625q0 1.75 1.4375 1.75q1.515625 0 2.015625 -1.125l0 -5.640625l1.328125 0l0 7.75l-1.265625 0l-0.03125 -0.765625zm7.813919 -1.28125q0 -0.546875 -0.40625 -0.84375q-0.40625 -0.296875 -1.421875 -0.5q-1.0 -0.21875 -1.59375 -0.515625q-0.578125 -0.3125 -0.875 -0.71875q-0.28125 -0.421875 -0.28125 -1.0q0 -0.9375 0.8125 -1.59375q0.8125 -0.671875 2.0625 -0.671875q1.3125 0 2.125 0.6875q0.828125 0.671875 0.828125 1.734375l-1.328125 0q0 -0.546875 -0.46875 -0.9375q-0.453125 -0.390625 -1.15625 -0.390625q-0.734375 0 -1.140625 0.3125q-0.40625 0.3125 -0.40625 0.828125q0 0.46875 0.375 0.71875q0.390625 0.25 1.375 0.46875q1.0 0.21875 1.609375 0.53125q0.609375 0.296875 0.90625 0.734375q0.296875 0.4375 0.296875 1.0625q0 1.03125 -0.828125 1.65625q-0.828125 0.625 -2.15625 0.625q-0.921875 0 -1.640625 -0.328125q-0.71875 -0.328125 -1.125 -0.921875q-0.390625 -0.59375 -0.390625 -1.28125l1.3125 0q0.046875 0.671875 0.53125 1.0625q0.5 0.390625 1.3125 0.390625q0.75 0 1.203125 -0.296875q0.46875 -0.3125 0.46875 -0.8125zm4.838379 -7.578125l0 1.875l1.453125 0l0 1.03125l-1.453125 0l0 4.796875q0 0.46875 0.1875 0.703125q0.203125 0.234375 0.671875 0.234375q0.21875 0 0.625 -0.09375l0 1.078125q-0.53125 0.140625 -1.015625 0.140625q-0.890625 0 -1.34375 -0.53125q-0.453125 -0.546875 -0.453125 -1.53125l0 -4.796875l-1.40625 0l0 -1.03125l1.40625 0l0 -1.875l1.328125 0zm6.209488 9.765625q-1.578125 0 -2.5625 -1.03125q-0.984375 -1.03125 -0.984375 -2.765625l0 -0.25q0 -1.140625 0.4375 -2.046875q0.4375 -0.90625 1.21875 -1.421875q0.796875 -0.515625 1.71875 -0.515625q1.515625 0 2.34375 1.0q0.84375 1.0 0.84375 2.84375l0 0.546875l-5.25 0q0.03125 1.15625 0.671875 1.859375q0.640625 0.703125 1.625 0.703125q0.703125 0 1.1875 -0.28125q0.5 -0.296875 0.859375 -0.765625l0.8125 0.625q-0.984375 1.5 -2.921875 1.5zm-0.171875 -6.9375q-0.796875 0 -1.34375 0.59375q-0.546875 0.578125 -0.671875 1.625l3.875 0l0 -0.109375q-0.046875 -1.0 -0.546875 -1.546875q-0.484375 -0.5625 -1.3125 -0.5625zm8.467789 0.234375q-0.3125 -0.046875 -0.65625 -0.046875q-1.296875 0 -1.765625 1.109375l0 5.5l-1.328125 0l0 -7.75l1.296875 0l0.015625 0.90625q0.65625 -1.046875 1.84375 -1.046875q0.390625 0 0.59375 0.109375l0 1.21875zm9.084366 3.25q-0.1875 1.65625 -1.21875 2.5625q-1.03125 0.890625 -2.734375 0.890625q-1.84375 0 -2.953125 -1.3125q-1.109375 -1.328125 -1.109375 -3.546875l0 -1.0q0 -1.453125 0.515625 -2.546875q0.515625 -1.109375 1.46875 -1.703125q0.953125 -0.59375 2.203125 -0.59375q1.65625 0 2.65625 0.9375q1.0 0.921875 1.171875 2.546875l-1.375 0q-0.1875 -1.234375 -0.78125 -1.796875q-0.59375 -0.5625 -1.671875 -0.5625q-1.3125 0 -2.0625 0.984375q-0.75 0.96875 -0.75 2.765625l0 1.0q0 1.703125 0.703125 2.703125q0.71875 1.0 1.984375 1.0q1.140625 0 1.75 -0.515625q0.625 -0.515625 0.828125 -1.8125l1.375 0zm2.992569 -3.5q0.875 -1.078125 2.28125 -1.078125q2.46875 0 2.484375 2.78125l0 5.109375l-1.328125 0l0 -5.125q0 -0.84375 -0.375 -1.234375q-0.375 -0.40625 -1.171875 -0.40625q-0.640625 0 -1.140625 0.34375q-0.484375 0.34375 -0.75 0.90625l0 5.515625l-1.328125 0l0 -11.0l1.328125 0l0 4.1875zm11.525513 6.8125q-0.109375 -0.234375 -0.1875 -0.8125q-0.921875 0.953125 -2.203125 0.953125q-1.140625 0 -1.875 -0.640625q-0.734375 -0.65625 -0.734375 -1.640625q0 -1.21875 0.921875 -1.875q0.921875 -0.671875 2.578125 -0.671875l1.296875 0l0 -0.609375q0 -0.703125 -0.421875 -1.109375q-0.40625 -0.40625 -1.21875 -0.40625q-0.703125 0 -1.1875 0.359375q-0.484375 0.34375 -0.484375 0.859375l-1.328125 0q0 -0.578125 0.40625 -1.109375q0.421875 -0.546875 1.125 -0.859375q0.703125 -0.328125 1.546875 -0.328125q1.34375 0 2.09375 0.671875q0.765625 0.671875 0.796875 1.84375l0 3.5625q0 1.0625 0.265625 1.703125l0 0.109375l-1.390625 0zm-2.203125 -1.015625q0.625 0 1.1875 -0.3125q0.5625 -0.328125 0.8125 -0.84375l0 -1.578125l-1.046875 0q-2.421875 0 -2.421875 1.421875q0 0.625 0.40625 0.96875q0.421875 0.34375 1.0625 0.34375zm6.6440735 -6.734375l0.046875 0.984375q0.890625 -1.125 2.3125 -1.125q2.46875 0 2.484375 2.78125l0 5.109375l-1.328125 0l0 -5.125q0 -0.84375 -0.375 -1.234375q-0.375 -0.40625 -1.171875 -0.40625q-0.640625 0 -1.140625 0.34375q-0.484375 0.34375 -0.75 0.90625l0 5.515625l-1.328125 0l0 -7.75l1.25 0zm8.0867 0l0.046875 0.984375q0.890625 -1.125 2.3125 -1.125q2.46875 0 2.484375 2.78125l0 5.109375l-1.328125 0l0 -5.125q0 -0.84375 -0.375 -1.234375q-0.375 -0.40625 -1.171875 -0.40625q-0.640625 0 -1.140625 0.34375q-0.484375 0.34375 -0.75 0.90625l0 5.515625l-1.328125 0l0 -7.75l1.25 0zm10.05545 7.890625q-1.578125 0 -2.5625 -1.03125q-0.984375 -1.03125 -0.984375 -2.765625l0 -0.25q0 -1.140625 0.4375 -2.046875q0.4375 -0.90625 1.21875 -1.421875q0.796875 -0.515625 1.71875 -0.515625q1.515625 0 2.34375 1.0q0.84375 1.0 0.84375 2.84375l0 0.546875l-5.25 0q0.03125 1.15625 0.671875 1.859375q0.640625 0.703125 1.625 0.703125q0.703125 0 1.1875 -0.28125q0.5 -0.296875 0.859375 -0.765625l0.8125 0.625q-0.984375 1.5 -2.921875 1.5zm-0.171875 -6.9375q-0.796875 0 -1.34375 0.59375q-0.546875 0.578125 -0.671875 1.625l3.875 0l0 -0.109375q-0.046875 -1.0 -0.546875 -1.546875q-0.484375 -0.5625 -1.3125 -0.5625zm6.1552887 6.796875l-1.328125 0l0 -11.0l1.328125 0l0 11.0zm3.697342 -4.078125l0 4.078125l-1.375 0l0 -10.421875l3.84375 0q1.71875 0 2.6875 0.875q0.96875 0.875 0.96875 2.3125q0 1.515625 -0.953125 2.34375q-0.9375 0.8125 -2.71875 0.8125l-2.453125 0zm0 -1.125l2.46875 0q1.109375 0 1.6875 -0.515625q0.59375 -0.515625 0.59375 -1.5q0 -0.9375 -0.59375 -1.484375q-0.578125 -0.5625 -1.609375 -0.578125l-2.546875 0l0 4.078125zm11.417908 -1.359375q-0.3125 -0.046875 -0.65625 -0.046875q-1.296875 0 -1.765625 1.109375l0 5.5l-1.328125 0l0 -7.75l1.296875 0l0.015625 0.90625q0.65625 -1.046875 1.84375 -1.046875q0.390625 0 0.59375 0.109375l0 1.21875zm0.86561584 2.625q0 -1.140625 0.4375 -2.046875q0.453125 -0.921875 1.25 -1.40625q0.796875 -0.5 1.828125 -0.5q1.5781174 0 2.5468674 1.09375q0.984375 1.09375 0.984375 2.921875l0 0.09375q0 1.125 -0.4375 2.03125q-0.4375 0.890625 -1.25 1.390625q-0.796875 0.5 -1.8437424 0.5q-1.5625 0 -2.546875 -1.09375q-0.96875 -1.09375 -0.96875 -2.890625l0 -0.09375zm1.328125 0.15625q0 1.28125 0.59375 2.0625q0.59375 0.78125 1.59375 0.78125q1.0156174 0 1.6093674 -0.78125q0.59375 -0.796875 0.59375 -2.21875q0 -1.28125 -0.609375 -2.0625q-0.59375 -0.796875 -1.5937424 -0.796875q-0.984375 0 -1.59375 0.78125q-0.59375 0.78125 -0.59375 2.234375zm9.93676 1.984375l1.90625 -5.953125l1.359375 0l-2.78125 7.75l-1.0 0l-2.8125 -7.75l1.359375 0l1.96875 5.953125zm5.974121 1.796875l-1.328125 0l0 -7.75l1.328125 0l0 7.75zm-1.421875 -9.796875q0 -0.328125 0.1875 -0.546875q0.203125 -0.21875 0.578125 -0.21875q0.390625 0 0.59375 0.21875q0.203125 0.21875 0.203125 0.546875q0 0.328125 -0.203125 0.546875q-0.203125 0.203125 -0.59375 0.203125q-0.375 0 -0.578125 -0.203125q-0.1875 -0.21875 -0.1875 -0.546875zm8.056732 7.75q0 -0.546875 -0.40625 -0.84375q-0.40625 -0.296875 -1.421875 -0.5q-1.0 -0.21875 -1.59375 -0.515625q-0.578125 -0.3125 -0.875 -0.71875q-0.28125 -0.421875 -0.28125 -1.0q0 -0.9375 0.8125 -1.59375q0.8125 -0.671875 2.0625 -0.671875q1.3125 0 2.125 0.6875q0.828125 0.671875 0.828125 1.734375l-1.328125 0q0 -0.546875 -0.46875 -0.9375q-0.453125 -0.390625 -1.15625 -0.390625q-0.734375 0 -1.140625 0.3125q-0.40625 0.3125 -0.40625 0.828125q0 0.46875 0.375 0.71875q0.390625 0.25 1.375 0.46875q1.0 0.21875 1.609375 0.53125q0.609375 0.296875 0.90625 0.734375q0.296875 0.4375 0.296875 1.0625q0 1.03125 -0.828125 1.65625q-0.828125 0.625 -2.15625 0.625q-0.921875 0 -1.640625 -0.328125q-0.71875 -0.328125 -1.125 -0.921875q-0.390625 -0.59375 -0.390625 -1.28125l1.3125 0q0.046875 0.671875 0.53125 1.0625q0.5 0.390625 1.3125 0.390625q0.75 0 1.203125 -0.296875q0.46875 -0.3125 0.46875 -0.8125zm4.479004 2.046875l-1.328125 0l0 -7.75l1.328125 0l0 7.75zm-1.421875 -9.796875q0 -0.328125 0.1875 -0.546875q0.203125 -0.21875 0.578125 -0.21875q0.390625 0 0.59375 0.21875q0.203125 0.21875 0.203125 0.546875q0 0.328125 -0.203125 0.546875q-0.203125 0.203125 -0.59375 0.203125q-0.375 0 -0.578125 -0.203125q-0.1875 -0.21875 -0.1875 -0.546875zm3.1973267 5.859375q0 -1.140625 0.4375 -2.046875q0.453125 -0.921875 1.25 -1.40625q0.796875 -0.5 1.828125 -0.5q1.578125 0 2.546875 1.09375q0.984375 1.09375 0.984375 2.921875l0 0.09375q0 1.125 -0.4375 2.03125q-0.4375 0.890625 -1.25 1.390625q-0.796875 0.5 -1.84375 0.5q-1.5625 0 -2.546875 -1.09375q-0.96875 -1.09375 -0.96875 -2.890625l0 -0.09375zm1.328125 0.15625q0 1.28125 0.59375 2.0625q0.59375 0.78125 1.59375 0.78125q1.015625 0 1.609375 -0.78125q0.59375 -0.796875 0.59375 -2.21875q0 -1.28125 -0.609375 -2.0625q-0.59375 -0.796875 -1.59375 -0.796875q-0.984375 0 -1.59375 0.78125q-0.59375 0.78125 -0.59375 2.234375zm8.624268 -3.96875l0.046875 0.984375q0.890625 -1.125 2.3125 -1.125q2.46875 0 2.484375 2.78125l0 5.109375l-1.328125 0l0 -5.125q0 -0.84375 -0.375 -1.234375q-0.375 -0.40625 -1.171875 -0.40625q-0.640625 0 -1.140625 0.34375q-0.484375 0.34375 -0.75 0.90625l0 5.515625l-1.328125 0l0 -7.75l1.25 0zm10.05545 7.890625q-1.578125 0 -2.5625 -1.03125q-0.984375 -1.03125 -0.984375 -2.765625l0 -0.25q0 -1.140625 0.4375 -2.046875q0.4375 -0.90625 1.21875 -1.421875q0.796875 -0.515625 1.71875 -0.515625q1.515625 0 2.34375 1.0q0.84375 1.0 0.84375 2.84375l0 0.546875l-5.25 0q0.03125 1.15625 0.671875 1.859375q0.640625 0.703125 1.625 0.703125q0.703125 0 1.1875 -0.28125q0.5 -0.296875 0.859375 -0.765625l0.8125 0.625q-0.984375 1.5 -2.921875 1.5zm-0.171875 -6.9375q-0.796875 0 -1.34375 0.59375q-0.546875 0.578125 -0.671875 1.625l3.875 0l0 -0.109375q-0.046875 -1.0 -0.546875 -1.546875q-0.484375 -0.5625 -1.3125 -0.5625zm8.467804 0.234375q-0.3125 -0.046875 -0.65625 -0.046875q-1.296875 0 -1.765625 1.109375l0 5.5l-1.328125 0l0 -7.75l1.296875 0l0.015625 0.90625q0.65625 -1.046875 1.84375 -1.046875q0.390625 0 0.59375 0.109375l0 1.21875z" fill-rule="nonzero"/><path fill="#000000" fill-opacity="0.0" d="m95.66826 64.62467l0.18897247 58.456696" fill-rule="evenodd"/><path stroke="#000000" stroke-width="1.0" stroke-linejoin="round" stroke-linecap="butt" stroke-dasharray="1.0,3.0" d="m95.66826 64.62467l0.16957855 52.456726" fill-rule="evenodd"/><path fill="#000000" stroke="#000000" stroke-width="1.0" stroke-linecap="butt" d="m94.18611 117.08674l1.6663971 4.53273l1.6370544 -4.5434113z" fill-rule="evenodd"/><path fill="#000000" fill-opacity="0.0" d="m93.3362 61.805775l110.58267 0l0 30.330708l-110.58267 0z" fill-rule="evenodd"/><path fill="#000000" d="m107.36745 78.32327l-0.59375 -0.0625q-1.25 0 -1.96875 1.125l-0.953125 5.5l-1.296875 0l1.34375 -7.75l1.25 0l-0.1875 0.90625q0.828125 -1.078125 1.9375 -1.0625q0.234375 0 0.625 0.109375l-0.15625 1.234375zm3.4275208 6.703125q-1.453125 -0.03125 -2.265625 -1.0625q-0.8125 -1.03125 -0.6875 -2.65625l0.03125 -0.3125q0.125 -1.140625 0.6875 -2.09375q0.5625 -0.953125 1.359375 -1.4375q0.8125 -0.484375 1.75 -0.46875q1.203125 0.03125 1.875 0.796875q0.6875 0.765625 0.75 2.078125q0.015625 0.46875 -0.03125 0.921875l-0.078125 0.59375l-5.0625 0q-0.125 1.0625 0.34375 1.796875q0.484375 0.734375 1.421875 0.765625q1.15625 0.03125 2.125 -1.03125l0.75 0.625q-0.5 0.703125 -1.265625 1.109375q-0.765625 0.390625 -1.703125 0.375zm0.8125 -6.953125q-0.796875 -0.015625 -1.40625 0.546875q-0.59375 0.5625 -0.9375 1.6875l3.765625 0l0.03125 -0.109375q0.109375 -0.90625 -0.296875 -1.5q-0.40625 -0.59375 -1.15625 -0.625zm4.068817 6.8125l1.171875 -6.71875l-1.203125 0l0.1875 -1.03125l1.1875 0l0.125 -0.90625q0.1875 -1.171875 0.90625 -1.828125q0.75 -0.6875 1.90625 -0.671875q0.375 0 0.921875 0.125l-0.15625 1.078125q-0.34375 -0.078125 -0.6875 -0.09375q-0.671875 0 -1.09375 0.421875q-0.421875 0.421875 -0.515625 1.109375l-0.109375 0.765625l1.59375 0l-0.171875 1.03125l-1.609375 0l-1.171875 6.71875l-1.28125 0z" fill-rule="nonzero"/><path fill="#fff2cc" d="m35.370796 4.1758533l120.59492 0c16.650696 0 30.148743 13.531929 30.148743 30.224407c0 16.692482 -13.498047 30.224411 -30.148743 30.224411l-120.59492 0l0 0c-16.650686 0 -30.148733 -13.531929 -30.148733 -30.224411c0 -16.692478 13.498047 -30.224407 30.148733 -30.224407z" fill-rule="evenodd"/><path fill="#000000" fill-opacity="0.0" d="m155.96571 64.62467c-16.65068 0 -30.148727 -13.531929 -30.148727 -30.224411c0 -16.692478 13.498047 -30.224407 30.148727 -30.224407" fill-rule="evenodd"/><path fill="#000000" fill-opacity="0.0" d="m35.370796 4.1758533l120.59492 0c16.650696 0 30.148743 13.531929 30.148743 30.224407c0 16.692482 -13.498047 30.224411 -30.148743 30.224411l-120.59492 0l0 0c-16.650686 0 -30.148733 -13.531929 -30.148733 -30.224411c0 -16.692478 13.498047 -30.224407 30.148733 -30.224407z" fill-rule="evenodd"/><path stroke="#000000" stroke-width="1.0" stroke-linejoin="round" stroke-linecap="butt" d="m155.96571 64.62467c-16.65068 0 -30.148727 -13.531929 -30.148727 -30.224411c0 -16.692478 13.498047 -30.224407 30.148727 -30.224407" fill-rule="evenodd"/><path stroke="#000000" stroke-width="1.0" stroke-linejoin="round" stroke-linecap="butt" d="m35.370796 4.1758533l120.59492 0c16.650696 0 30.148743 13.531929 30.148743 30.224407c0 16.692482 -13.498047 30.224411 -30.148743 30.224411l-120.59492 0l0 0c-16.650686 0 -30.148733 -13.531929 -30.148733 -30.224411c0 -16.692478 13.498047 -30.224407 30.148733 -30.224407z" fill-rule="evenodd"/><path fill="#000000" d="m55.66767 37.117138q-0.25 2.09375 -1.5625 3.25q-1.296875 1.140625 -3.46875 1.140625q-2.34375 0 -3.765625 -1.6875q-1.421875 -1.6875 -1.421875 -4.515625l0 -1.265625q0 -1.859375 0.65625 -3.25q0.671875 -1.40625 1.875 -2.15625q1.21875 -0.765625 2.8125 -0.765625q2.109375 0 3.390625 1.1875q1.28125 1.171875 1.484375 3.265625l-1.765625 0q-0.21875 -1.578125 -0.984375 -2.28125q-0.765625 -0.71875 -2.125 -0.71875q-1.671875 0 -2.625 1.234375q-0.953125 1.234375 -0.953125 3.53125l0 1.28125q0 2.15625 0.890625 3.4375q0.90625 1.265625 2.53125 1.265625q1.453125 0 2.234375 -0.65625q0.78125 -0.65625 1.03125 -2.296875l1.765625 0zm3.7992096 -4.453125q1.125 -1.375 2.921875 -1.375q3.125 0 3.15625 3.515625l0 6.515625l-1.6875 0l0 -6.515625q-0.015625 -1.078125 -0.5 -1.578125q-0.46875 -0.515625 -1.484375 -0.515625q-0.8125 0 -1.4375 0.4375q-0.609375 0.4375 -0.96875 1.15625l0 7.015625l-1.671875 0l0 -14.0l1.671875 0l0 5.34375zm14.681763 8.65625q-0.140625 -0.296875 -0.234375 -1.03125q-1.171875 1.21875 -2.8125 1.21875q-1.453125 0 -2.390625 -0.828125q-0.921875 -0.828125 -0.921875 -2.09375q0 -1.53125 1.15625 -2.375q1.171875 -0.859375 3.296875 -0.859375l1.640625 0l0 -0.78125q0 -0.890625 -0.53125 -1.40625q-0.515625 -0.53125 -1.546875 -0.53125q-0.90625 0 -1.515625 0.46875q-0.609375 0.453125 -0.609375 1.09375l-1.703125 0q0 -0.734375 0.515625 -1.421875q0.53125 -0.6875 1.421875 -1.078125q0.90625 -0.40625 1.984375 -0.40625q1.703125 0 2.671875 0.859375q0.96875 0.84375 1.0 2.328125l0 4.53125q0 1.359375 0.34375 2.171875l0 0.140625l-1.765625 0zm-2.796875 -1.28125q0.796875 0 1.5 -0.40625q0.71875 -0.421875 1.03125 -1.078125l0 -2.015625l-1.3125 0q-3.109375 0 -3.109375 1.8125q0 0.796875 0.53125 1.25q0.53125 0.4375 1.359375 0.4375zm8.46048 -8.578125l0.046875 1.234375q1.125 -1.40625 2.953125 -1.40625q3.125 0 3.15625 3.515625l0 6.515625l-1.6875 0l0 -6.515625q-0.015625 -1.078125 -0.5 -1.578125q-0.46875 -0.515625 -1.484375 -0.515625q-0.8125 0 -1.4375 0.4375q-0.609375 0.4375 -0.96875 1.15625l0 7.015625l-1.671875 0l0 -9.859375l1.59375 0zm10.293732 0l0.046875 1.234375q1.125 -1.40625 2.953125 -1.40625q3.125 0 3.15625 3.515625l0 6.515625l-1.6875 0l0 -6.515625q-0.015625 -1.078125 -0.5 -1.578125q-0.46875 -0.515625 -1.484375 -0.515625q-0.8125 0 -1.4375 0.4375q-0.609375 0.4375 -0.96875 1.15625l0 7.015625l-1.671875 0l0 -9.859375l1.59375 0zm12.778107 10.046875q-2.0 0 -3.265625 -1.3125q-1.25 -1.328125 -1.25 -3.53125l0 -0.3125q0 -1.46875 0.5625 -2.609375q0.5625 -1.15625 1.5625 -1.796875q1.015625 -0.65625 2.1875 -0.65625q1.921875 0 2.984375 1.265625q1.0625 1.265625 1.0625 3.625l0 0.6875l-6.671875 0q0.03125 1.46875 0.84375 2.375q0.828125 0.890625 2.078125 0.890625q0.890625 0 1.515625 -0.359375q0.625 -0.375 1.078125 -0.96875l1.03125 0.796875q-1.234375 1.90625 -3.71875 1.90625zm-0.203125 -8.84375q-1.015625 0 -1.71875 0.75q-0.6875 0.734375 -0.84375 2.078125l4.9375 0l0 -0.125q-0.078125 -1.28125 -0.703125 -1.984375q-0.609375 -0.71875 -1.671875 -0.71875zm7.8369293 8.65625l-1.6875 0l0 -14.0l1.6875 0l0 14.0z" fill-rule="nonzero"/></g></svg>